<svg xmlns="http://www.w3.org/2000/svg" width="54" height="54" viewBox="0 0 54 54">
  <g id="video" transform="translate(-17.5 -141)">
    <circle id="Ellipse_224" data-name="Ellipse 224" cx="27" cy="27" r="27" transform="translate(17.5 141)" fill="#ed3751"/>
    <g id="noun_Video_3952729" transform="translate(22.5 136.5)">
      <path id="Path_3618" data-name="Path 3618" d="M23.389,23.5a2.7,2.7,0,0,1,2.965,2.922v9.565A2.769,2.769,0,0,1,23.4,39H13.061A2.772,2.772,0,0,1,10,36.088V26.526A2.814,2.814,0,0,1,12.964,23.5H23.389Zm8.783,1.461A1.2,1.2,0,0,1,33.4,26.213l0,.075v9.928a1.214,1.214,0,0,1-1.23,1.327,1.624,1.624,0,0,1-.979-.408l-.07-.06-3.471-3.007V28.426l3.471-3a1.677,1.677,0,0,1,1.049-.468Z" transform="translate(0 0)" fill="#fff"/>
    </g>
  </g>
</svg>
