<svg xmlns="http://www.w3.org/2000/svg" width="19" height="19" viewBox="0 0 19 19">
  <g id="back" transform="translate(-3 -14.23)">
    <circle id="Ellipse_4" data-name="Ellipse 4" cx="9.5" cy="9.5" r="9.5" transform="translate(3 14.23)" fill="#fff"/>
    <g id="left-arrow_1_" data-name="left-arrow (1)" transform="translate(10.186 20.145)">
      <g id="Group_82" data-name="Group 82" transform="translate(0 0)">
        <path id="Path_98" data-name="Path 98" d="M102.823,3.4,105.37.858a.373.373,0,0,0,0-.526l-.223-.223a.373.373,0,0,0-.526,0L101.588,3.14a.376.376,0,0,0,0,.528L104.617,6.7a.373.373,0,0,0,.527,0l.223-.223a.373.373,0,0,0,0-.526Z" transform="translate(-101.48 0)" fill="#555"/>
      </g>
    </g>
  </g>
</svg>
