<svg id="camera" xmlns="http://www.w3.org/2000/svg" width="27" height="27" viewBox="0 0 27 27">
  <circle id="Ellipse_5" data-name="Ellipse 5" cx="13.5" cy="13.5" r="13.5" fill="#f1c86b"/>
  <g id="Icon_ionic-ios-camera" data-name="Icon ionic-ios-camera" transform="translate(6.4 8.375)">
    <path id="Path_4" data-name="Path 4" d="M18,17.314a2.021,2.021,0,1,1-2.021-2.021A2.021,2.021,0,0,1,18,17.314Z" transform="translate(-9.229 -11.584)" fill="#fff"/>
    <path id="Path_5" data-name="Path 5" d="M16.928,9.563H15.012a.571.571,0,0,1-.422-.19c-1-1.118-1.375-1.5-1.782-1.5H9.8c-.411,0-.816.38-1.818,1.5a.56.56,0,0,1-.418.186H7.421V9.281A.282.282,0,0,0,7.14,9H6.226a.282.282,0,0,0-.281.281v.281H5.681A1.14,1.14,0,0,0,4.5,10.642v6.187A1.217,1.217,0,0,0,5.678,18h11.25A1.127,1.127,0,0,0,18,16.829V10.642A1.048,1.048,0,0,0,16.928,9.563Zm-5.537,7.045a3.006,3.006,0,1,1,2.862-2.862A3.009,3.009,0,0,1,11.391,16.608ZM14.625,11.6a.457.457,0,1,1,.457-.457A.456.456,0,0,1,14.625,11.6Z" transform="translate(-4.5 -7.875)" fill="#fff"/>
  </g>
</svg>
