<svg xmlns="http://www.w3.org/2000/svg" width="74.585" height="69.964" viewBox="0 0 74.585 69.964">
  <g id="logo" transform="translate(-278.779 -292.661)">
    <path id="Path_1" data-name="Path 1" d="M291.066,361.625a.658.658,0,0,1-.63-.468l-3.522-11.643a.659.659,0,0,1,.084-.559l3.344-4.961-.071-.222h-.031a.659.659,0,0,1-.623-.446l-.234-.687a.672.672,0,0,1,.033-.513l.017-.031q.228-1.2.463-2.4a.659.659,0,0,1,.453-.5q.4-.124.807-.245a.66.66,0,0,1,.252-.4,3.047,3.047,0,0,1,1.037-.834,4.822,4.822,0,0,0-.1-2.345,3.421,3.421,0,0,1-1.107-.266,3.309,3.309,0,0,1-.35-.176,3.221,3.221,0,0,1-.3-.193c-.068-.049-.134-.1-.2-.155a3.21,3.21,0,0,1-.357-.355c-.055-.063-.107-.129-.157-.2a3.117,3.117,0,0,1-.188-.292v0l-.054-.015c-.1-.028-.194-.059-.291-.092l-.045-.015c-.058-.02-.116-.04-.174-.062-.093-.035-.185-.075-.278-.116l-.1-.043q-.152-.07-.3-.149l-.026-.014a5.7,5.7,0,0,1-1.5-1.155l-.18,0a6.152,6.152,0,0,1-2.593-.554,8.3,8.3,0,0,1-4.052-4.882c-.031-.09-.055-.162-.068-.2-.066-.18-.1-.3-.113-.335l-.083-.281a.659.659,0,0,1,.358-.785c.907-.415,1.842-.813,2.779-1.181a.66.66,0,0,1,.48,0,1.285,1.285,0,0,1,.145-1c.743-1.323,3.879-2.539,5.407-2.9a16.242,16.242,0,0,1,3.981-.542c1.72,0,2.662.4,2.878,1.209l0,.017a.657.657,0,0,1,.444-.269c1-.141,2.022-.258,3.025-.347l.058,0a.659.659,0,0,1,.631.47l.079.264c.012.042.046.161.089.347.012.041.031.115.056.216a7.7,7.7,0,0,1-.82,6.1,5.905,5.905,0,0,1-2.054,1.833,5.454,5.454,0,0,1-1.239,2.56q-.088.1-.182.2l-.017.017c0,.023,0,.046,0,.069,0,.086,0,.171-.005.255a3.081,3.081,0,0,1-.321,1.194,3.165,3.165,0,0,1-.352.553c-.045.057-.092.112-.14.166a3.332,3.332,0,0,1-.542.485l.057.147c.021.053.042.106.063.157l.049.115c.02.048.041.095.061.14l.062.134.047.1s.093.185.109.215l.106.192c.015.025.06.1.06.1.024.039.048.078.072.115s.05.076.073.109l.055.076.044.06.1.118.092.1.036.036.053.052.072.064.1,0,.15,0c.063,0,.123,0,.18,0l.07,0h.02l.13.009.089.01.12.016.086.016c.04.008.08.016.117.025l.087.024c.035.01.073.022.11.035l.077.03a.661.661,0,0,1,.424.205l.483-.125a.659.659,0,0,1,.623.166l1.084,1.056.846.83a.659.659,0,0,1,.153.233.608.608,0,0,1,.021.065l.187.692a.658.658,0,0,1-.3.74l.089.325.6-.122-.227-1.467a.658.658,0,0,1,.083-.435l4.872-8.282a.659.659,0,0,1,.554-.325l1.251-.028-.014-.013a.658.658,0,0,1-.2-.463l-.022-1.163a.656.656,0,0,1,.089-.343l.937-1.665q.6-1.066,1.211-2.135a.659.659,0,0,1,.552-.333l1.1-.032a.657.657,0,0,1,.464-.547l.1-.081q.053-.041.113-.081l.037-.024.083-.052.127-.073.082-.043.053-.027.07-.034.065-.03.079-.035.147-.06.154-.058.037-.013.124-.043c.2-.066.415-.126.641-.18l.144-.033c.035-.046.069-.095.1-.145l.005-.008c.033-.05.065-.1.1-.157l.014-.024c.026-.046.059-.105.09-.167l.01-.02q.047-.094.093-.2l.608.253-.6-.276c.031-.07.062-.144.092-.22l.01-.026c.027-.072.058-.155.087-.242l0-.007c.063-.188.122-.391.175-.6l0-.02c.023-.095.049-.207.073-.323l.649.116-.645-.135c.024-.116.047-.236.069-.36l.652.1-.648-.117q.033-.191.063-.393l0-.017c.06-.421.107-.886.138-1.377a5.051,5.051,0,0,1-.695-.251q-.111-.049-.219-.1a4.871,4.871,0,0,1-.984-.66,4.775,4.775,0,0,1-.52-.525c-.07-.082-.138-.168-.2-.255-.095-.129-.183-.262-.262-.4a4.375,4.375,0,0,1-.223-.428c-.051-.113-.1-.23-.141-.347s-.081-.24-.113-.36c-.023-.086-.043-.175-.062-.268-.065-.036-.126-.071-.186-.106q-.183-.108-.36-.224c-.235-.154-.465-.32-.683-.495q-.164-.131-.321-.269a8.225,8.225,0,0,1-2.027-2.678,9.245,9.245,0,0,1-4.058-1.893c-3.465-2.787-3.846-7.472-3.88-8.842-.007-.158-.009-.279-.01-.343-.011-.2-.018-.38-.019-.548l0-.463a.659.659,0,0,1,.532-.641c1.6-.314,3.228-.591,4.847-.823a.67.67,0,0,1,.094-.007.659.659,0,0,1,.627.458l.109.34a2.871,2.871,0,0,0,.84,1.229l-.008-.47a1.439,1.439,0,0,1-.485-1.043,1.458,1.458,0,0,1,.037-.355l0-.014a.944.944,0,0,1-.037-.219l0-.055c-.005-.068-.006-.1-.006-.1a1.713,1.713,0,0,1,.548-1.238c1.643-1.69,7.034-2.451,9.438-2.468.278-.014.577-.021.89-.021,2.666,0,7.153.539,8.588,2.022a1.654,1.654,0,0,1,.514,1.222c0,.012,0,.025,0,.037l-.01.117a.925.925,0,0,1-.037.208l-.006.023a1.475,1.475,0,0,1,.033.361,1.516,1.516,0,0,1-.5,1.059l-.012.425a3.19,3.19,0,0,0,.853-1.3l.11-.343a.659.659,0,0,1,.627-.458l.061,0c1.62.15,3.249.345,4.841.581a.658.658,0,0,1,.562.654l0,.456c0,.186-.012.375-.025.576,0,.066,0,.19-.014.364-.049,1.38-.479,6.157-3.965,9.131a9.671,9.671,0,0,1-4.083,2.069,8.979,8.979,0,0,1-3.436,3.815l-.062.039-.129.077a4.514,4.514,0,0,1-.185.661,4.777,4.777,0,0,1-.313.686,5.026,5.026,0,0,1-2.969,2.371,8.31,8.31,0,0,0,1.089,4.354,4.806,4.806,0,0,1,2.043.83.66.66,0,0,1,.472.542q.828.008,1.654.021a.658.658,0,0,1,.575.357q.922,1.792,1.831,3.577a.659.659,0,0,1,.253.549l-.055,1.195a.372.372,0,0,0,.473.476l4.761,8.714a.659.659,0,0,1,.07.437l-.376,2.667.43.12.092-.339a.657.657,0,0,1,.181-.305l.839-.822,1.085-1.057a.659.659,0,0,1,.623-.166l.489.127a.648.648,0,0,1,.417-.207l.083-.032c.032-.012.07-.024.11-.035l.083-.022c.037-.009.077-.017.117-.025l.085-.016.12-.016.089-.01.12-.009.031,0,.069,0c.058,0,.118,0,.178,0l.151,0,.1,0,.07-.062.047-.045.044-.044.058-.063.033-.038.1-.118.078-.106.024-.033c.021-.03.042-.063.064-.1l.01-.015c.022-.034.046-.073.07-.112l.012-.02c.016-.026.031-.051.047-.079l.053-.1.054-.1c.015-.029.109-.215.109-.215.019-.038.109-.234.109-.234.019-.044.039-.089.058-.134l.051-.121c.021-.05.042-.1.063-.157l.057-.147a3.265,3.265,0,0,1-1.035-1.2,3.085,3.085,0,0,1-.322-1.2,2.858,2.858,0,0,1,0-.321c-.069-.072-.135-.146-.2-.221s-.117-.14-.173-.211c-.111-.143-.216-.292-.312-.442-.049-.077-.1-.154-.139-.231-.089-.156-.171-.318-.244-.481-.047-.1-.088-.21-.128-.316a5.284,5.284,0,0,1-.21-.708c-.012-.057-.024-.113-.034-.17a5.917,5.917,0,0,1-2.058-1.84,7.7,7.7,0,0,1-.813-6.109c.022-.09.041-.162.052-.2.044-.192.079-.313.087-.341l.08-.27a.659.659,0,0,1,.631-.471l.059,0c1,.089,2.02.206,3.025.347a.657.657,0,0,1,.444.269l0-.017c.216-.813,1.158-1.209,2.878-1.209a16.239,16.239,0,0,1,3.981.542c1.528.362,4.663,1.579,5.407,2.9a1.286,1.286,0,0,1,.146,1,.66.66,0,0,1,.48,0c.937.369,1.873.766,2.78,1.181a.659.659,0,0,1,.358.785l-.084.286c-.012.038-.048.156-.112.331-.013.041-.037.114-.072.215a8.293,8.293,0,0,1-4.053,4.872,6.145,6.145,0,0,1-2.588.552h0l-.18,0a5.8,5.8,0,0,1-2.376,1.54l-.031.011-.1.036c-.083.027-.165.049-.246.072h-.005a2.985,2.985,0,0,1-.191.3,3.223,3.223,0,0,1-.711.707,3.371,3.371,0,0,1-.425.262c-.074.038-.15.074-.226.107a3.391,3.391,0,0,1-1.107.266,4.822,4.822,0,0,0-.1,2.345,3.048,3.048,0,0,1,1.037.834.66.66,0,0,1,.252.4q.4.121.807.245a.659.659,0,0,1,.453.5q.235,1.2.462,2.4l.012.022a.666.666,0,0,1,.043.507l-.239.7a.659.659,0,0,1-.623.446h-.031l-.347,1.079,2.16,3.706a.658.658,0,0,1,.077.46l-1.877,9.442a.659.659,0,0,1-.646.53Z" stroke="#fff" stroke-miterlimit="10" stroke-width="2"/>
    <g id="Group_56" data-name="Group 56" transform="translate(280.466 294.32)">
      <g id="Group_40" data-name="Group 40" transform="translate(7.078 0)">
        <g id="Group_9" data-name="Group 9" transform="translate(0 36.413)">
          <path id="Path_2" data-name="Path 2" d="M590.826,598.225l-3.616-6.206L576.358,589l.163,6.067Z" transform="translate(-535.256 -577.433)" fill="#a3a3a3"/>
          <path id="Path_3" data-name="Path 3" d="M326.788,588.789l3.775-5.6,14-2.851.368,4.6Z" transform="translate(-326.788 -570.197)" fill="#a3a3a3"/>
          <path id="Path_4" data-name="Path 4" d="M346.345,623.787,344.929,608.3l-18.141,3.845,3.522,11.643Z" transform="translate(-326.788 -593.553)" fill="#333"/>
          <path id="Path_5" data-name="Path 5" d="M409.061,623.787,407.645,608.3l-5.776,1.224,3.426,14.263Z" transform="translate(-389.504 -593.553)"/>
          <path id="Path_6" data-name="Path 6" d="M581.571,638.436l1.877-9.442-14.3-3.157-1.618,12.6Z" transform="translate(-527.877 -608.202)" fill="#333"/>
          <path id="Path_7" data-name="Path 7" d="M438.866,593.189l3.03-21.52h-28.84l3.337,21.52Z" transform="translate(-398.848 -562.955)" fill="#4f4f4f"/>
          <path id="Path_8" data-name="Path 8" d="M441.9,527.473H413.057l2.418-4.111,2.454-4.172.379-.008,18.829-.423Z" transform="translate(-398.849 -518.759)" fill="#a3a3a3"/>
          <path id="Path_9" data-name="Path 9" d="M430.569,521.329l-1.173,4.863-1.66-.683,2.454-4.172Z" transform="translate(-411.111 -520.906)"/>
          <g id="Group_4" data-name="Group 4" transform="translate(5.846 15.181)">
            <g id="Group_1" data-name="Group 1" transform="translate(19.341)" opacity="0.5">
              <path id="Path_10" data-name="Path 10" d="M487.156,611.86l-2.822,9.352-1.475-.291-.165-.494-.293-6.657-1.611.8-.9-.964-.165-.494,2.78-2.171,4.49.426Z" transform="translate(-479.721 -610.94)" fill="#d6d6d6"/>
            </g>
            <g id="Group_2" data-name="Group 2" transform="translate(0 5.562)" opacity="0.5">
              <path id="Path_11" data-name="Path 11" d="M368.275,646.941a2.878,2.878,0,0,1-.161,2.23,4.85,4.85,0,0,1-1.5,1.709l1.2-.81.165.494.153,1.109-2.684.437-.165-.494c.4-.27.584-1.72.856-2.009q.94-.976.62-1.711-.219-.518-.634-.382a2.287,2.287,0,0,0-1.006.958L362.449,647l-.165-.494c.74-.242,4.259-2.365,4.883-1.636A5.909,5.909,0,0,1,368.275,646.941Z" transform="translate(-362.284 -644.714)" fill="#d6d6d6"/>
            </g>
            <g id="Group_3" data-name="Group 3" transform="translate(39.578 6.448)" opacity="0.5">
              <path id="Path_12" data-name="Path 12" d="M608.84,651.638l-3.7,3.74q1.075.646.631,1.618a2.079,2.079,0,0,1-.258.408,1.035,1.035,0,0,1-1.383.274,4.09,4.09,0,0,1-1.364-1.119l-.165-.494.9.049a1.381,1.381,0,0,0,.493.432q.358.164.558-.229.314-.619-.555-1.017a1.052,1.052,0,0,0-.2-.069l-.165-.494,1.809-.733-1.854-.229-.165-.494.633-3.188,4.612,1.052Z" transform="translate(-602.6 -650.092)" fill="#d6d6d6"/>
            </g>
          </g>
          <g id="Group_8" data-name="Group 8" transform="translate(5.846 14.687)">
            <g id="Group_5" data-name="Group 5" transform="translate(19.341)">
              <path id="Path_13" data-name="Path 13" d="M486.992,608.86l-2.822,9.352-1.475-.291-.457-7.151-1.611.8-.9-.964,2.615-2.665Z" transform="translate(-479.721 -607.94)" fill="#fff"/>
            </g>
            <g id="Group_6" data-name="Group 6" transform="translate(0 4.893)">
              <path id="Path_14" data-name="Path 14" d="M368.11,640.548a2.878,2.878,0,0,1-.161,2.23,4.85,4.85,0,0,1-1.5,1.708l1.365-.316.152,1.109-2.684.437-.314-1.666a6,6,0,0,0,1.005-.838q.94-.976.62-1.711-.219-.518-.634-.382a2.287,2.287,0,0,0-1.006.958l-2.67-1.476,2.672-2.86a1.824,1.824,0,0,1,2.047.73A5.912,5.912,0,0,1,368.11,640.548Z" transform="translate(-362.284 -637.652)" fill="#fff"/>
            </g>
            <g id="Group_7" data-name="Group 7" transform="translate(39.578 6.448)">
              <path id="Path_15" data-name="Path 15" d="M608.675,648.638l-3.7,3.74q1.075.646.631,1.618a2.078,2.078,0,0,1-.258.408,1.035,1.035,0,0,1-1.383.274,4.09,4.09,0,0,1-1.364-1.119l.74-.445a1.383,1.383,0,0,0,.493.432q.358.164.558-.229.314-.619-.555-1.017a1.05,1.05,0,0,0-.2-.069L605.284,651l-1.854-.229.468-3.682Z" transform="translate(-602.6 -647.092)" fill="#fff"/>
            </g>
          </g>
          <path id="Path_16" data-name="Path 16" d="M413.055,571.669l27.94.6-2.007,20.043,2.907-20.647Z" transform="translate(-398.848 -562.955)" fill="#fff"/>
          <path id="Path_17" data-name="Path 17" d="M580.707,626.339l13.752,3.074-1.362,6.854.786-6.51Z" transform="translate(-538.888 -608.622)" fill="#fff"/>
          <path id="Path_18" data-name="Path 18" d="M328.025,619.808l-1.237-4.09,14.817-3.14-14.089,3.586Z" transform="translate(-326.788 -597.126)" fill="#fff"/>
        </g>
        <g id="Group_24" data-name="Group 24" transform="translate(13.327)">
          <g id="Group_12" data-name="Group 12" transform="translate(7.409 30.566)">
            <path id="Path_19" data-name="Path 19" d="M469.727,487.181c-5.67-.121-11.357-.116-17.031.016l.941-1.672q.6-1.064,1.21-2.133,6.442-.2,12.89-.1Q468.74,485.24,469.727,487.181Z" transform="translate(-452.696 -483.256)" fill="#9e5125"/>
            <path id="Path_20" data-name="Path 20" d="M470.227,484.416c-.02,1.1-2.848,1.965-6.318,2.008a12.9,12.9,0,0,1-5.5-.9q.6-1.064,1.21-2.133,4.726-.15,9.458-.133C469.81,483.585,470.236,483.986,470.227,484.416Z" transform="translate(-457.47 -483.256)" fill="#522a14" opacity="0.5" style="mix-blend-mode: multiply;isolation: isolate"/>
            <path id="Path_21" data-name="Path 21" d="M453.481,530.058q.651-1.866,1.313-3.747,6.977-.1,13.957-.048.715,1.9,1.418,3.782Q461.826,530.024,453.481,530.058Z" transform="translate(-453.352 -519.164)" fill="#9e5125"/>
            <path id="Path_22" data-name="Path 22" d="M470.133,550.46H453.5l-.022-1.163q8.343-.034,16.688-.013Z" transform="translate(-453.352 -538.404)" fill="#633318"/>
            <path id="Path_23" data-name="Path 23" d="M453.481,549.042c1.391-.026,2.781-.041,4.172-.052s2.781-.012,4.172-.02h2.086l2.086,0,2.086.014,2.086.021h.019v.019l-.055,1.176.018-1.177.018.019-2.086.024-2.086.017-2.086.007-2.086,0c-1.391,0-2.781,0-4.172-.013S454.872,549.067,453.481,549.042Z" transform="translate(-453.352 -538.148)" fill="#fff"/>
            <path id="Path_24" data-name="Path 24" d="M469.693,507.523q-8.48-.124-16.976.079-.011-.581-.022-1.163c5.674-.157,11.362-.189,17.034-.093Q469.711,506.935,469.693,507.523Z" transform="translate(-452.695 -502.498)" fill="#633318"/>
            <path id="Path_25" data-name="Path 25" d="M452.7,506.115c.709-.033,1.419-.057,2.128-.083l2.129-.059q1.064-.028,2.129-.04l2.13-.023c1.42-.011,2.84,0,4.26.009l2.129.034q1.065.019,2.129.053h.019v.018l-.054,1.176.018-1.177.018.019-4.259-.01h-2.129l-2.129.008-4.258.031Z" transform="translate(-452.695 -502.174)" fill="#fff"/>
            <path id="Path_26" data-name="Path 26" d="M472.863,518.9q-7.577-.023-15.157.017-.043-2.665-.087-5.33,7.7-.17,15.4-.072Q472.94,516.209,472.863,518.9Z" transform="translate(-456.808 -508.503)" fill="#522a14"/>
            <path id="Path_27" data-name="Path 27" d="M473,514.1q-7.68-.09-15.372.066,0-.29-.01-.581,7.7-.17,15.4-.072Q473.008,513.81,473,514.1Z" transform="translate(-456.808 -508.503)" fill="#522a14" opacity="0.5" style="mix-blend-mode: multiply;isolation: isolate"/>
            <g id="Group_11" data-name="Group 11" transform="translate(4.002 6.006)">
              <path id="Path_28" data-name="Path 28" d="M485.464,522.042q-4.042-.014-8.085.032c-.216,0-.382,1.356-.381,1.573q0,.523.007,1.046a.391.391,0,0,0,.391.39q4.006-.021,8.013-.015a.4.4,0,0,0,.4-.394q.01-.526.02-1.052C485.83,523.4,485.68,522.042,485.464,522.042Z" transform="translate(-476.998 -521.657)" fill="#522a14" opacity="0.5" style="mix-blend-mode: multiply;isolation: isolate"/>
              <path id="Path_29" data-name="Path 29" d="M486.826,520.044q-4.045-.017-8.093.03a.4.4,0,0,0-.39.4q.007,1.112.014,2.223a.391.391,0,0,0,.391.39q4.01-.023,8.021-.015a.4.4,0,0,0,.4-.394q.022-1.117.044-2.235A.386.386,0,0,0,486.826,520.044Z" transform="translate(-478.122 -519.987)" fill="#f1c40f"/>
              <path id="Path_30" data-name="Path 30" d="M489.142,522.41s0-.171,0-.47,0-.727,0-1.24q0-.192,0-.4a1.092,1.092,0,0,0-.007-.2.341.341,0,0,0-.089-.166.333.333,0,0,0-.167-.093,1.11,1.11,0,0,0-.216-.006l-.472.005-2.009.016h-2.009c-.641,0-1.24-.01-1.753-.014s-.941-.016-1.24-.02l-.47-.011.47-.015c.3-.007.727-.021,1.239-.029s1.111-.022,1.753-.027l2.009-.016h2.009l.472,0h.115a.5.5,0,0,1,.125.014.433.433,0,0,1,.321.342,1.14,1.14,0,0,1,0,.22q-.007.207-.013.4c-.02.512-.037.94-.049,1.239S489.142,522.41,489.142,522.41Z" transform="translate(-480.098 -519.722)" fill="#fff"/>
              <g id="Group_10" data-name="Group 10" transform="translate(0.417 0.25)">
                <path id="Path_31" data-name="Path 31" d="M487.767,523.873q-4.012-.009-8.026.016a.2.2,0,0,1-.2-.2q-.006-1.112-.013-2.224a.2.2,0,0,1,.195-.2q4.044-.045,8.088-.029a.193.193,0,0,1,.192.2q-.022,1.117-.043,2.235A.2.2,0,0,1,487.767,523.873Zm-7.833-.378q3.823-.026,7.646-.017.016-.92.033-1.841-3.843-.013-7.688.026Q479.93,522.579,479.934,523.5Z" transform="translate(-479.533 -521.239)" fill="#e67e22"/>
              </g>
              <path id="Path_32" data-name="Path 32" d="M525.733,528.116a.225.225,0,0,1-.223.221.217.217,0,0,1-.216-.223.225.225,0,0,1,.224-.222A.217.217,0,0,1,525.733,528.116Z" transform="translate(-517.34 -526.547)" fill="#2c3e50"/>
              <path id="Path_33" data-name="Path 33" d="M482.475,528.241a.22.22,0,1,0,.219-.223A.222.222,0,0,0,482.475,528.241Z" transform="translate(-481.573 -526.652)" fill="#2c3e50"/>
              <path id="Path_34" data-name="Path 34" d="M484.1,520.048q-2.684,0-5.368.033a.394.394,0,0,0-.39.4q.007,1.112.014,2.223a.391.391,0,0,0,.391.39c.773,0,1.546-.006,2.319-.009Z" transform="translate(-478.122 -519.994)" fill="#fff" opacity="0.2" style="mix-blend-mode: overlay;isolation: isolate"/>
              <path id="Path_35" data-name="Path 35" d="M511.329,520.107a.382.382,0,0,0-.181-.048h-.661l-3.026,3.026h.891Z" transform="translate(-502.444 -520.003)" fill="#fff" opacity="0.2" style="mix-blend-mode: overlay;isolation: isolate"/>
            </g>
          </g>
          <g id="Group_23" data-name="Group 23">
            <g id="Group_15" data-name="Group 15" transform="translate(20.792 3.373)">
              <g id="Group_13" data-name="Group 13" transform="translate(0.014)">
                <path id="Path_36" data-name="Path 36" d="M534.042,330.268q.01-.482.019-.964a9.2,9.2,0,0,0,6.445-2.014c2.8-2.4,3.308-6.4,3.406-7.769q-1.5-.2-3-.348c-.325.739-1.248,2.373-3.053,2.259q.014-.48.028-.96c1.459.093,2.156-1.957,2.163-1.979l.113-.35q2.417.224,4.806.576,0,.227,0,.455c0,.261-.057,5.7-3.745,8.832A10.278,10.278,0,0,1,534.042,330.268Z" transform="translate(-534.042 -318.144)" fill="#fc0"/>
              </g>
              <g id="Group_14" data-name="Group 14" transform="translate(0 0.531)">
                <path id="Path_37" data-name="Path 37" d="M533.979,333.5q.009-.482.019-.964a9.179,9.179,0,0,0,6.436-2.02c2.793-2.4,3.3-6.408,3.4-7.774q-1.495-.2-3-.343c-.324.74-1.246,2.374-3.049,2.263q.014-.48.028-.96c1.458.092,2.154-1.959,2.161-1.981l.112-.35q2.414.221,4.8.568,0,.228,0,.455c0,.261-.058,5.7-3.741,8.837A10.251,10.251,0,0,1,533.979,333.5Z" transform="translate(-533.975 -321.367)" fill="#fff"/>
                <path id="Path_38" data-name="Path 38" d="M533.954,334.787q.009-.482.019-.964a9.169,9.169,0,0,0,6.433-2.022c2.792-2.4,3.3-6.41,3.4-7.776q-1.494-.195-3-.341c-.324.74-1.246,2.375-3.048,2.264q.014-.48.028-.96c1.457.091,2.153-1.96,2.159-1.982l.112-.35q2.413.219,4.8.565l0,.455c0,.261-.058,5.7-3.739,8.84A10.242,10.242,0,0,1,533.954,334.787Z" transform="translate(-533.954 -322.444)" fill="#fc0"/>
              </g>
            </g>
            <g id="Group_18" data-name="Group 18" transform="translate(0 3.96)">
              <g id="Group_16" data-name="Group 16">
                <path id="Path_39" data-name="Path 39" d="M418.5,333.431a10,10,0,0,1-7.151-1.957c-3.654-2.922-3.646-8.252-3.648-8.508l0-.447q2.392-.47,4.813-.818l.108.34c.006.02.666,2.012,2.142,1.845l.017.948a3.07,3.07,0,0,1-3.029-2.079q-1.51.224-3.009.5c.083,1.336.549,5.245,3.32,7.487a8.938,8.938,0,0,0,6.424,1.734Q418.5,332.953,418.5,333.431Z" transform="translate(-407.706 -321.703)" fill="#fc0"/>
              </g>
              <g id="Group_17" data-name="Group 17" transform="translate(0.018 0.523)">
                <path id="Path_40" data-name="Path 40" d="M418.6,336.614a9.975,9.975,0,0,1-7.141-1.968c-3.649-2.93-3.642-8.26-3.644-8.516q0-.223,0-.446,2.389-.464,4.808-.807l.109.34c.006.02.665,2.013,2.139,1.849q.009.474.017.948a3.073,3.073,0,0,1-3.025-2.084q-1.508.221-3.005.489c.082,1.336.549,5.246,3.316,7.494a8.918,8.918,0,0,0,6.415,1.745Q418.6,336.136,418.6,336.614Z" transform="translate(-407.818 -324.877)" fill="#fff"/>
                <path id="Path_41" data-name="Path 41" d="M418.642,337.888a9.967,9.967,0,0,1-7.137-1.973c-3.648-2.933-3.64-8.264-3.642-8.519q0-.223,0-.446,2.388-.461,4.805-.8l.108.34c.006.02.665,2.014,2.138,1.85q.008.474.017.948a3.075,3.075,0,0,1-3.023-2.086q-1.507.22-3,.486c.083,1.336.549,5.247,3.315,7.5a8.911,8.911,0,0,0,6.411,1.749Z" transform="translate(-407.856 -325.938)" fill="#ffb301"/>
              </g>
            </g>
            <g id="Group_22" data-name="Group 22" transform="translate(6.544)">
              <path id="Path_42" data-name="Path 42" d="M484.976,484.721c-.014.774-2.01,1.386-4.459,1.4s-4.438-.565-4.443-1.334,1.99-1.448,4.459-1.47S484.991,483.948,484.976,484.721Z" transform="translate(-471.359 -452.743)" fill="#fc0"/>
              <path id="Path_43" data-name="Path 43" d="M478.646,484.259c-1.524.247-2.576.757-2.572,1.316s1.057,1.017,2.571,1.221Q478.646,485.527,478.646,484.259Z" transform="translate(-471.359 -453.528)" fill="#ffb301"/>
              <path id="Path_44" data-name="Path 44" d="M484.947,482.093q-4.47-.036-8.944.08.006.793.012,1.585,4.45-.1,8.9-.069Q484.932,482.891,484.947,482.093Z" transform="translate(-471.299 -451.711)" fill="#fc0"/>
              <path id="Path_45" data-name="Path 45" d="M478.587,482.292q-1.292.021-2.584.054.006.792.012,1.585,1.286-.029,2.572-.047Q478.586,483.088,478.587,482.292Z" transform="translate(-471.299 -451.885)" fill="#ffb301"/>
              <path id="Path_46" data-name="Path 46" d="M484.947,475.032c-.014.774-2.019,1.383-4.48,1.4s-4.458-.555-4.464-1.324,2-1.455,4.48-1.48S484.961,474.259,484.947,475.032Z" transform="translate(-471.299 -444.65)" fill="#fc0"/>
              <path id="Path_47" data-name="Path 47" d="M478.786,476.5c.095-.161.185-.325.269-.493a11.029,11.029,0,0,0,.426-1.484,2.914,2.914,0,0,1,.254-.714c-2.124.139-3.737.763-3.732,1.452C476.007,475.842,477.158,476.311,478.786,476.5Z" transform="translate(-471.299 -444.797)" fill="#ffb301"/>
              <path id="Path_48" data-name="Path 48" d="M484.947,482.136a.573.573,0,0,1-.011.109.622.622,0,0,1-.145.28,2.38,2.38,0,0,1-.961.591,7.678,7.678,0,0,1-1.547.388c-.288.044-.587.081-.892.1s-.615.036-.925.04-.621-.007-.924-.025-.6-.05-.891-.088a7.555,7.555,0,0,1-1.543-.362,2.3,2.3,0,0,1-.954-.572.6.6,0,0,1-.142-.276.573.573,0,0,1-.01-.109.557.557,0,0,0,.021.106.617.617,0,0,0,.162.25,1.471,1.471,0,0,0,.388.264,3.966,3.966,0,0,0,.576.22,8.869,8.869,0,0,0,1.528.291c.284.033.579.053.879.069s.6.021.911.017.611-.012.911-.032.6-.046.88-.083A8.923,8.923,0,0,0,483.79,483a4.068,4.068,0,0,0,.579-.231,1.531,1.531,0,0,0,.391-.272.647.647,0,0,0,.165-.255A.6.6,0,0,0,484.947,482.136Z" transform="translate(-471.299 -451.754)" fill="#fff"/>
              <path id="Path_49" data-name="Path 49" d="M485.116,442.347q-4.431-.036-8.866.081c1.115-.033,3.316-.105,3.675-5.858.031-.493.049-1.027.051-1.606q.748-.014,1.5-.021c0,.58.007,1.114.033,1.607C481.8,442.3,484,442.334,485.116,442.347Z" transform="translate(-471.506 -412.333)" fill="#fc0"/>
              <path id="Path_50" data-name="Path 50" d="M500.148,436.549a4.495,4.495,0,0,1-1.581.021c.031-.493.049-1.027.051-1.606q.748-.014,1.5-.021C500.11,435.521,500.122,436.056,500.148,436.549Z" transform="translate(-490.147 -412.333)" fill="#ffb301"/>
              <path id="Path_51" data-name="Path 51" d="M480.318,439.33c.147-1.434.221-2.871.232-4.309l-.486.008c-.026,7.313-2.492,7.428-3.709,7.465q1.67-.044,3.341-.066A21.377,21.377,0,0,0,480.318,439.33Z" transform="translate(-471.592 -412.399)" fill="#ffb301"/>
              <path id="Path_52" data-name="Path 52" d="M485.813,385.658q-.045,2.551-.091,5.1a4.008,4.008,0,0,1-.242,1.307,4.42,4.42,0,0,1-4.109,2.848,4.218,4.218,0,0,1-4.078-2.722,3.878,3.878,0,0,1-.228-1.292q-.017-2.535-.034-5.07Q481.42,385.591,485.813,385.658Z" transform="translate(-472.158 -371.153)" fill="#ffb301"/>
              <path id="Path_53" data-name="Path 53" d="M477.031,385.83q.017,2.535.034,5.07a3.878,3.878,0,0,0,.228,1.292,4.217,4.217,0,0,0,4.078,2.722,4.42,4.42,0,0,0,4.109-2.848,4.008,4.008,0,0,0,.242-1.307q.046-2.551.091-5.1Q481.426,385.591,477.031,385.83Zm4.924,8.571a3.583,3.583,0,0,1-3.658-3.439,3.757,3.757,0,0,1,3.709-3.62,3.594,3.594,0,0,1,3.656,3.529A3.724,3.724,0,0,1,481.955,394.4Z" transform="translate(-472.158 -371.153)" fill="#fc0"/>
              <path id="Path_54" data-name="Path 54" d="M485.813,385.658q-.045,2.551-.091,5.1a4.008,4.008,0,0,1-.242,1.307,9.164,9.164,0,0,1-4.1,1.027,8.969,8.969,0,0,1-4.088-.9,3.878,3.878,0,0,1-.228-1.292q-.017-2.535-.034-5.07Q481.42,385.591,485.813,385.658Z" transform="translate(-472.158 -371.153)" fill="#fc0"/>
              <path id="Path_55" data-name="Path 55" d="M459.1,334.4h0c-4.659.056-8.49-3.236-8.569-7.628q-.089-4.907-.179-9.814a95.178,95.178,0,0,1,17.694-.471q-.145,4.966-.289,9.933C467.627,330.868,463.76,334.316,459.1,334.4Z" transform="translate(-449.873 -313.212)" fill="#fc0"/>
              <path id="Path_56" data-name="Path 56" d="M465.627,332.687a6.729,6.729,0,0,1-4.444,1.693,6.6,6.6,0,0,1-4.41-1.671,5.791,5.791,0,0,1-1.86-4.128q-.033-5.392-.067-10.784-2.253.163-4.495.432.09,4.907.179,9.814c.079,4.392,3.91,7.685,8.569,7.628h0a8.928,8.928,0,0,0,7.587-4.292A7.318,7.318,0,0,1,465.627,332.687Z" transform="translate(-449.873 -314.481)" fill="#ffb301"/>
              <path id="Path_57" data-name="Path 57" d="M554.126,317.495q-.155,5.4-.31,10.8a5.357,5.357,0,0,1-.22,1.372,7.63,7.63,0,0,0,.4-2.226q.145-4.966.289-9.933Z" transform="translate(-536.113 -314.228)" fill="#ffb301"/>
              <path id="Path_58" data-name="Path 58" d="M459.19,308.69a54.413,54.413,0,0,1-5.758-.147c-1.921-.185-3.07-.566-3.08-1.106s1.127-1.216,3.052-1.741a26.665,26.665,0,0,1,5.808-.808,25.932,25.932,0,0,1,5.8.487c1.92.423,3.049,1.05,3.033,1.591s-1.17.992-3.094,1.279A54.538,54.538,0,0,1,459.19,308.69Z" transform="translate(-449.872 -303.689)" fill="#fc0"/>
              <path id="Path_59" data-name="Path 59" d="M459.264,313.894a53.543,53.543,0,0,1-5.745-.154c-1.917-.189-3.063-.573-3.073-1.113s1.124-1.213,3.045-1.734a26.684,26.684,0,0,1,5.795-.8,25.971,25.971,0,0,1,5.788.487c1.915.422,3.042,1.046,3.026,1.587s-1.167.994-3.087,1.282A53.606,53.606,0,0,1,459.264,313.894Z" transform="translate(-449.951 -308.037)" fill="#ffb301"/>
              <path id="Path_60" data-name="Path 60" d="M456.83,306.9c-3.214.015-9.271.138-9.3-1.625-.041-1.848,6.072-3.015,9.327-3.034,3.256-.165,9.358.668,9.3,2.539C466.1,306.561,460.044,306.747,456.83,306.9Z" transform="translate(-447.514 -301.466)" fill="#fc0"/>
              <path id="Path_61" data-name="Path 61" d="M456.761,302.341c-3.22.015-9.29.151-9.319-1.611-.041-1.848,6.083-3.028,9.345-3.047,3.263-.168,9.376.671,9.314,2.543C466.052,302.009,459.982,302.189,456.761,302.341Z" transform="translate(-447.442 -297.661)" fill="#fc0"/>
              <path id="Path_62" data-name="Path 62" d="M466.1,313.23l0,.053-.006.065a.292.292,0,0,1-.016.088.986.986,0,0,1-.321.5,2.865,2.865,0,0,1-.832.488,7.854,7.854,0,0,1-1.225.376c-.46.108-.966.2-1.5.277s-1.11.147-1.7.2-1.207.107-1.832.143-1.261.066-1.9.086-1.273.017-1.9.012-1.239-.023-1.831-.047-1.163-.063-1.7-.113-1.043-.113-1.5-.2a7.53,7.53,0,0,1-1.221-.309,2.656,2.656,0,0,1-.827-.44.9.9,0,0,1-.315-.476.276.276,0,0,1-.015-.086l-.005-.064c0-.034,0-.052,0-.052l.009.051.011.062a.261.261,0,0,0,.023.083.917.917,0,0,0,.345.433,2.635,2.635,0,0,0,.833.376,8.94,8.94,0,0,0,1.218.241,30.934,30.934,0,0,0,3.183.208c.588.016,1.2.017,1.818.02s1.25-.007,1.881-.024,1.261-.041,1.881-.074,1.23-.068,1.819-.114a31.067,31.067,0,0,0,3.186-.377,9.181,9.181,0,0,0,1.221-.307,2.829,2.829,0,0,0,.838-.425,1.014,1.014,0,0,0,.349-.456.282.282,0,0,0,.024-.086l.012-.064Z" transform="translate(-447.443 -310.666)" fill="#fff"/>
              <path id="Path_63" data-name="Path 63" d="M460.3,304.364c-5.34.152-8.615-.343-8.627-1.053-.013-.668,3.256-2.15,8.646-2.32,5.39-.135,8.642,1.176,8.622,1.852C468.922,303.561,465.641,304.235,460.3,304.364Z" transform="translate(-450.977 -300.434)" fill="#fc0"/>
              <path id="Path_64" data-name="Path 64" d="M524.418,302.007q.031.282.04.564a5.1,5.1,0,0,1-.646,2.486c3.388-.262,5.372-.8,5.388-1.357C529.214,303.194,527.472,302.377,524.418,302.007Z" transform="translate(-511.234 -301.291)" fill="#ffb301"/>
              <path id="Path_65" data-name="Path 65" d="M451.674,302.776a.347.347,0,0,1,.056-.182,1.381,1.381,0,0,1,.423-.4,7.991,7.991,0,0,1,1.921-.86,19.3,19.3,0,0,1,2.884-.678,27.813,27.813,0,0,1,3.362-.311,27.258,27.258,0,0,1,3.359.121,18.269,18.269,0,0,1,2.878.519,7.359,7.359,0,0,1,1.912.761,1.254,1.254,0,0,1,.419.378.338.338,0,0,1,.054.18.338.338,0,0,0-.065-.175,1.3,1.3,0,0,0-.431-.349,5.1,5.1,0,0,0-.81-.358c-.325-.113-.7-.221-1.111-.322a20.12,20.12,0,0,0-2.867-.45,27.282,27.282,0,0,0-3.338-.092,27.634,27.634,0,0,0-3.34.28c-.53.08-1.042.167-1.524.27s-.935.216-1.349.338-.788.25-1.115.381a5.528,5.528,0,0,0-.815.4,1.425,1.425,0,0,0-.436.369A.351.351,0,0,0,451.674,302.776Z" transform="translate(-450.977 -299.899)" fill="#fff"/>
              <g id="Group_19" data-name="Group 19" transform="translate(10.983 9.077)">
                <path id="Path_66" data-name="Path 66" d="M514.853,361.065a.728.728,0,0,1-.646-.375.687.687,0,0,1,.325-.94l.071-.033c.244-.113.893-.407.918-2.115l.059-4.135a.748.748,0,0,1,1.492.019q-.038,2.066-.076,4.133c-.047,2.578-1.345,3.157-1.771,3.353l-.036.016A.766.766,0,0,1,514.853,361.065Z" transform="translate(-514.128 -352.777)" fill="#fff"/>
              </g>
              <g id="Group_20" data-name="Group 20" transform="translate(12.462 5.996)">
                <path id="Path_67" data-name="Path 67" d="M523.85,336.553a.721.721,0,0,1-.739-.7l.016-1.09a.754.754,0,0,1,1.5.021q-.01.545-.02,1.089A.726.726,0,0,1,523.85,336.553Z" transform="translate(-523.111 -334.07)" fill="#fff"/>
              </g>
              <g id="Group_21" data-name="Group 21" transform="translate(8.946 30.605)">
                <path id="Path_68" data-name="Path 68" d="M502.136,484.442a.371.371,0,0,1-.376-.366.383.383,0,0,1,.375-.383,15.067,15.067,0,0,0,1.92-.193.373.373,0,0,1,.426.317.381.381,0,0,1-.325.426,15.594,15.594,0,0,1-2.015.2Z" transform="translate(-501.76 -483.495)" fill="#fff"/>
              </g>
            </g>
          </g>
        </g>
        <g id="Group_39" data-name="Group 39" transform="translate(43.172 28.383)">
          <g id="Group_27" data-name="Group 27" transform="translate(0 17.6)">
            <path id="Path_69" data-name="Path 69" d="M606.947,581.67q-5-1.57-10.088-2.919l.845-.828q.54-.527,1.083-1.055,3.85.986,7.65,2.157Q606.7,580.351,606.947,581.67Z" transform="translate(-595.553 -576.868)" fill="#9e5125"/>
            <path id="Path_70" data-name="Path 70" d="M609.176,579.3c-.2.646-2.024.674-4.086.1a7.954,7.954,0,0,1-3.1-1.477l1.083-1.055q2.824.724,5.623,1.547C609.072,578.734,609.255,579.045,609.176,579.3Z" transform="translate(-599.838 -576.868)" fill="#522a14" opacity="0.5" style="mix-blend-mode: multiply;isolation: isolate"/>
            <path id="Path_71" data-name="Path 71" d="M590.065,603.33q.707-.993,1.422-1.993,4.149,1.139,8.273,2.371.1,1.246.19,2.484Q595.012,604.745,590.065,603.33Z" transform="translate(-589.878 -597.307)" fill="#9e5125"/>
            <path id="Path_72" data-name="Path 72" d="M598.775,616.991l-9.847-2.859.187-.692q4.946,1.414,9.884,2.861Z" transform="translate(-588.928 -607.417)" fill="#633318"/>
            <path id="Path_73" data-name="Path 73" d="M590.065,613.44q1.242.335,2.479.687c.826.23,1.649.471,2.474.706l1.235.359,1.235.361,1.233.367,1.232.371.011,0,0,.011-.234.687.213-.694.008.014-1.239-.344-1.238-.349-1.237-.354L595,614.909c-.823-.242-1.647-.478-2.468-.725S590.884,613.693,590.065,613.44Z" transform="translate(-589.878 -607.417)" fill="#fff"/>
            <path id="Path_74" data-name="Path 74" d="M605.787,591.869q-5-1.531-10.066-2.872l.187-.692q5.08,1.324,10.1,2.874Z" transform="translate(-594.602 -586.421)" fill="#633318"/>
            <path id="Path_75" data-name="Path 75" d="M596.858,588.3c.425.1.85.21,1.274.316l1.271.331q.635.166,1.268.342l1.265.352c.843.238,1.682.487,2.521.737l1.255.386q.627.194,1.251.4l.011,0,0,.011-.234.687.213-.694.007.014-2.52-.738-1.26-.366-1.262-.361-2.527-.714Z" transform="translate(-595.552 -586.421)" fill="#fff"/>
            <path id="Path_76" data-name="Path 76" d="M602.3,599.035q-4.482-1.316-8.978-2.6l.865-3.171q4.586,1.223,9.13,2.6Z" transform="translate(-592.603 -590.567)" fill="#522a14"/>
            <path id="Path_77" data-name="Path 77" d="M607.12,596.217q-4.533-1.374-9.114-2.6l.094-.345q4.586,1.223,9.13,2.6Z" transform="translate(-596.511 -590.567)" fill="#522a14" opacity="0.5" style="mix-blend-mode: multiply;isolation: isolate"/>
            <g id="Group_26" data-name="Group 26" transform="translate(2.794 3.942)">
              <path id="Path_78" data-name="Path 78" d="M611.368,603.167q-2.391-.7-4.793-1.371c-.128-.036-.459.737-.5.866l-.175.621a.241.241,0,0,0,.164.3q2.376.676,4.748,1.369a.246.246,0,0,0,.3-.165l.193-.62C611.351,604.036,611.5,603.2,611.368,603.167Z" transform="translate(-605.895 -601.631)" fill="#522a14" opacity="0.5" style="mix-blend-mode: multiply;isolation: isolate"/>
              <path id="Path_79" data-name="Path 79" d="M612.539,602.185q-2.393-.705-4.8-1.374a.243.243,0,0,0-.3.168l-.374,1.319a.241.241,0,0,0,.165.3q2.379.675,4.752,1.37a.246.246,0,0,0,.3-.165l.41-1.316A.238.238,0,0,0,612.539,602.185Z" transform="translate(-606.868 -600.803)" fill="#f1c40f"/>
              <path id="Path_80" data-name="Path 80" d="M615.746,603.847l.079-.279.213-.734.07-.237a.674.674,0,0,0,.03-.12.211.211,0,0,0-.024-.114.207.207,0,0,0-.083-.084.692.692,0,0,0-.127-.041l-.281-.078-1.193-.336-1.189-.346c-.38-.11-.732-.219-1.035-.31s-.554-.171-.731-.225l-.277-.087.281.072c.178.048.434.112.739.2s.662.178,1.042.285l1.192.336,1.189.346.279.082.068.02a.309.309,0,0,1,.072.029.268.268,0,0,1,.132.258.71.71,0,0,1-.036.131l-.077.235-.242.725Z" transform="translate(-610.326 -600.848)" fill="#fff"/>
              <g id="Group_25" data-name="Group 25" transform="translate(0.312 0.121)">
                <path id="Path_81" data-name="Path 81" d="M612.63,604.464q-2.374-.695-4.755-1.37a.12.12,0,0,1-.082-.149l.374-1.319a.122.122,0,0,1,.15-.084q2.4.668,4.794,1.373a.119.119,0,0,1,.08.15l-.41,1.316A.123.123,0,0,1,612.63,604.464Zm-4.573-1.57q2.268.642,4.53,1.3l.336-1.085q-2.273-.668-4.557-1.306Z" transform="translate(-607.789 -601.537)" fill="#e67e22"/>
              </g>
              <path id="Path_82" data-name="Path 82" d="M636.284,613.423a.139.139,0,0,1-.17.093.134.134,0,0,1-.09-.169.139.139,0,0,1,.17-.093A.134.134,0,0,1,636.284,613.423Z" transform="translate(-631.057 -611.199)" fill="#2c3e50"/>
              <path id="Path_83" data-name="Path 83" d="M610.65,606.059a.135.135,0,1,0,.168-.094A.135.135,0,0,0,610.65,606.059Z" transform="translate(-609.863 -605.11)" fill="#2c3e50"/>
              <path id="Path_84" data-name="Path 84" d="M610.926,601.715q-1.59-.46-3.185-.9a.243.243,0,0,0-.3.168l-.374,1.319a.241.241,0,0,0,.165.3q.687.2,1.374.393Z" transform="translate(-606.868 -600.803)" fill="#fff" opacity="0.2" style="mix-blend-mode: overlay;isolation: isolate"/>
              <path id="Path_85" data-name="Path 85" d="M626.717,608.676a.234.234,0,0,0-.1-.059l-.391-.114-2.312,1.271.528.153Z" transform="translate(-620.947 -607.234)" fill="#fff" opacity="0.2" style="mix-blend-mode: overlay;isolation: isolate"/>
            </g>
          </g>
          <g id="Group_38" data-name="Group 38" transform="translate(1.551)">
            <g id="Group_30" data-name="Group 30" transform="translate(10.818 4.403)">
              <g id="Group_28" data-name="Group 28" transform="translate(0.138)">
                <path id="Path_86" data-name="Path 86" d="M664.87,502.864l.177-.568a5.674,5.674,0,0,0,4.163-.085,7.211,7.211,0,0,0,3.352-4.015q-.852-.375-1.719-.723a2.046,2.046,0,0,1-2.2.813l.182-.563c.848.306,1.613-.788,1.621-.8l.127-.188q1.393.548,2.747,1.167l-.079.269c-.048.154-1.014,3.365-3.736,4.586A6.338,6.338,0,0,1,664.87,502.864Z" transform="translate(-664.87 -496.736)" fill="#ff5050"/>
              </g>
              <g id="Group_29" data-name="Group 29" transform="translate(0 0.311)">
                <path id="Path_87" data-name="Path 87" d="M664.273,504.757l.177-.567a5.66,5.66,0,0,0,4.158-.09,7.228,7.228,0,0,0,3.351-4.018q-.851-.373-1.718-.719a2.047,2.047,0,0,1-2.195.816l.181-.563c.847.3,1.612-.79,1.62-.8l.127-.188q1.392.546,2.745,1.162l-.079.269c-.048.154-1.014,3.365-3.735,4.59A6.322,6.322,0,0,1,664.273,504.757Z" transform="translate(-664.234 -498.625)" fill="#fff"/>
                <path id="Path_88" data-name="Path 88" d="M664.035,505.515l.177-.568a5.655,5.655,0,0,0,4.157-.091,7.234,7.234,0,0,0,3.35-4.02q-.851-.372-1.717-.718a2.047,2.047,0,0,1-2.194.817l.182-.563c.847.3,1.612-.791,1.62-.8l.127-.188q1.391.544,2.744,1.159l-.079.269c-.048.154-1.014,3.365-3.734,4.592A6.315,6.315,0,0,1,664.035,505.515Z" transform="translate(-664.035 -499.257)" fill="#ff0303"/>
              </g>
            </g>
            <g id="Group_33" data-name="Group 33" transform="translate(0 0.607)">
              <g id="Group_31" data-name="Group 31" transform="translate(0.109)">
                <path id="Path_89" data-name="Path 89" d="M603.9,482a6.166,6.166,0,0,1-3.9-2.388c-1.661-2.358-.74-5.513-.7-5.665l.079-.264q1.5.133,2.991.343,0,.11.006.22c0,.013.048,1.306.951,1.461l-.153.564a1.893,1.893,0,0,1-1.436-1.751q-.933-.127-1.867-.224a6.649,6.649,0,0,0,.679,5,5.512,5.512,0,0,0,3.506,2.131Z" transform="translate(-599.007 -473.683)" fill="#ff5050"/>
              </g>
              <g id="Group_32" data-name="Group 32" transform="translate(0 0.306)">
                <path id="Path_90" data-name="Path 90" d="M603.414,483.868a6.151,6.151,0,0,1-3.89-2.393c-1.657-2.362-.737-5.518-.694-5.669l.079-.264q1.495.136,2.985.349,0,.11.006.22c0,.013.048,1.306.949,1.462l-.153.564a1.9,1.9,0,0,1-1.433-1.754q-.931-.128-1.864-.227a6.667,6.667,0,0,0,.675,5.008,5.5,5.5,0,0,0,3.5,2.136Z" transform="translate(-598.506 -475.542)" fill="#fff"/>
                <path id="Path_91" data-name="Path 91" d="M603.221,484.615a6.146,6.146,0,0,1-3.887-2.4c-1.656-2.364-.735-5.519-.692-5.671l.079-.264q1.494.138,2.983.351,0,.11.006.22c0,.013.047,1.306.948,1.463l-.153.564a1.9,1.9,0,0,1-1.432-1.755q-.93-.129-1.862-.228a6.675,6.675,0,0,0,.674,5.009,5.494,5.494,0,0,0,3.5,2.138Z" transform="translate(-598.349 -476.163)" fill="#d10000"/>
              </g>
            </g>
            <g id="Group_37" data-name="Group 37" transform="translate(2.447)">
              <path id="Path_92" data-name="Path 92" d="M618.5,583.042c-.142.456-1.428.475-2.882.065s-2.531-1.1-2.4-1.554,1.427-.515,2.893-.1S618.641,582.587,618.5,583.042Z" transform="translate(-613.206 -562.863)" fill="#ff5050"/>
              <path id="Path_93" data-name="Path 93" d="M614.965,581.217c-.945-.116-1.655.005-1.749.337s.451.784,1.313,1.165Z" transform="translate(-613.206 -562.865)" fill="#ff0303"/>
              <path id="Path_94" data-name="Path 94" d="M618.844,579.257q-2.641-.79-5.31-1.49l-.266.941q2.653.706,5.283,1.489Z" transform="translate(-613.259 -560.019)" fill="#ff5050"/>
              <path id="Path_95" data-name="Path 95" d="M615.074,578.179q-.769-.21-1.539-.412l-.266.941q.766.2,1.531.414Z" transform="translate(-613.259 -560.019)" fill="#ff0303"/>
              <path id="Path_96" data-name="Path 96" d="M620.139,577.322c-.142.456-1.433.472-2.894.061s-2.545-1.1-2.416-1.552,1.434-.518,2.907-.106S620.28,576.867,620.139,577.322Z" transform="translate(-614.553 -558.084)" fill="#f66"/>
              <path id="Path_97" data-name="Path 97" d="M616.264,577.045c.084-.079.166-.161.244-.246a6.782,6.782,0,0,0,.507-.805,1.8,1.8,0,0,1,.273-.379c-1.281-.283-2.344-.191-2.459.218C614.732,576.179,615.333,576.655,616.264,577.045Z" transform="translate(-614.553 -558.085)" fill="#ff0832"/>
              <path id="Path_98" data-name="Path 98" d="M620.119,579.257a.343.343,0,0,1-.025.063.385.385,0,0,1-.134.141,1.467,1.467,0,0,1-.671.185,4.718,4.718,0,0,1-.983-.036c-.178-.024-.361-.053-.546-.092s-.37-.084-.554-.136-.367-.111-.543-.174-.349-.133-.512-.206a4.669,4.669,0,0,1-.851-.479,1.416,1.416,0,0,1-.467-.5.37.37,0,0,1-.037-.188.349.349,0,0,1,.013-.066.349.349,0,0,0-.006.066.378.378,0,0,0,.053.176.907.907,0,0,0,.184.223,2.458,2.458,0,0,0,.3.229,5.455,5.455,0,0,0,.855.435c.162.068.334.131.509.192s.354.116.536.167.364.1.545.138.36.075.535.1a5.5,5.5,0,0,0,.961.075,2.494,2.494,0,0,0,.383-.037.949.949,0,0,0,.278-.094.4.4,0,0,0,.141-.123A.343.343,0,0,0,620.119,579.257Z" transform="translate(-614.534 -560.019)" fill="#fff"/>
              <path id="Path_99" data-name="Path 99" d="M620.675,558.8q-2.618-.783-5.264-1.476c.666.172,1.982.508,3.183-2.837.1-.286.206-.6.306-.942q.445.12.89.245c-.1.342-.187.661-.257.957C618.72,558.2,620.017,558.6,620.675,558.8Z" transform="translate(-615.048 -539.785)" fill="#f66"/>
              <path id="Path_100" data-name="Path 100" d="M635.681,554.746a2.772,2.772,0,0,1-.94-.259c.1-.286.206-.6.306-.942q.446.12.89.245C635.835,554.131,635.75,554.449,635.681,554.746Z" transform="translate(-631.194 -539.785)" fill="#ff0832"/>
              <path id="Path_101" data-name="Path 101" d="M618.363,556.134c.333-.824.624-1.662.878-2.512l-.289-.079c-1.273,4.326-2.753,3.97-3.48,3.783q1,.261,1.99.535A13.2,13.2,0,0,0,618.363,556.134Z" transform="translate(-615.099 -539.785)" fill="#ff0832"/>
              <path id="Path_102" data-name="Path 102" d="M632.413,522.6l-.931,3.005a2.476,2.476,0,0,1-.368.732,2.726,2.726,0,0,1-2.923.98A2.6,2.6,0,0,1,626.244,525a2.393,2.393,0,0,1,.087-.8l.852-3.008Q629.823,521.8,632.413,522.6Z" transform="translate(-624.093 -512.761)" fill="#ff0303"/>
              <path id="Path_103" data-name="Path 103" d="M627.183,521.192l-.852,3.008a2.4,2.4,0,0,0-.087.8,2.6,2.6,0,0,0,1.947,2.313,2.726,2.726,0,0,0,2.923-.98,2.476,2.476,0,0,0,.368-.732l.931-3.005Q629.827,521.806,627.183,521.192Zm1.442,5.921a2.209,2.209,0,0,1-1.574-2.665,2.317,2.317,0,0,1,2.818-1.506,2.216,2.216,0,0,1,1.558,2.718A2.3,2.3,0,0,1,628.625,527.113Z" transform="translate(-624.093 -512.761)" fill="#f66"/>
              <path id="Path_104" data-name="Path 104" d="M632.413,522.6l-.931,3.005a2.476,2.476,0,0,1-.368.732,5.65,5.65,0,0,1-2.6-.1A5.53,5.53,0,0,1,626.244,525a2.393,2.393,0,0,1,.087-.8l.852-3.008Q629.823,521.8,632.413,522.6Z" transform="translate(-624.093 -512.761)" fill="#f66"/>
              <path id="Path_105" data-name="Path 105" d="M620.926,489.143h0a4.981,4.981,0,0,1-3.763-5.99l1.581-5.842a58.689,58.689,0,0,1,10.558,2.763l-1.879,5.832A5.263,5.263,0,0,1,620.926,489.143Z" transform="translate(-616.377 -476.107)" fill="#ff5050"/>
              <path id="Path_106" data-name="Path 106" d="M625.3,488.5a4.148,4.148,0,0,1-2.922.239,4.069,4.069,0,0,1-2.324-1.747,3.57,3.57,0,0,1-.392-2.764l1.814-6.4q-1.362-.29-2.736-.517l-1.581,5.842a4.981,4.981,0,0,0,3.763,5.99h0a5.5,5.5,0,0,0,5.23-1.237A4.506,4.506,0,0,1,625.3,488.5Z" transform="translate(-616.377 -476.107)" fill="#ff0303"/>
              <path id="Path_107" data-name="Path 107" d="M678.918,493.883l-2.04,6.34a3.3,3.3,0,0,1-.366.775,4.7,4.7,0,0,0,.62-1.249l1.879-5.832Z" transform="translate(-666.086 -489.95)" fill="#ff0303"/>
              <path id="Path_108" data-name="Path 108" d="M632.556,477a33.512,33.512,0,0,1-3.384-1.077c-1.106-.44-1.721-.863-1.634-1.184s.876-.526,2.106-.506a16.444,16.444,0,0,1,3.578.52,16,16,0,0,1,3.351,1.286c1.064.581,1.625,1.146,1.522,1.464s-.863.386-2.052.225A33.579,33.579,0,0,1,632.556,477Z" transform="translate(-625.171 -473.532)" fill="#ff5050"/>
              <path id="Path_109" data-name="Path 109" d="M631.717,480.062a33.016,33.016,0,0,1-3.375-1.079c-1.1-.441-1.716-.866-1.629-1.187s.874-.525,2.1-.5a16.456,16.456,0,0,1,3.569.522,16.013,16.013,0,0,1,3.343,1.283c1.062.579,1.621,1.142,1.519,1.46s-.862.388-2.048.228A33.084,33.084,0,0,1,631.717,480.062Z" transform="translate(-624.482 -476.09)" fill="#ff0303"/>
              <path id="Path_110" data-name="Path 110" d="M631,475.956c-1.905-.544-5.513-1.512-5.228-2.561.293-1.1,4.113-.741,6.044-.193,1.956.462,5.426,2,5.068,3.1C636.544,477.352,632.925,476.421,631,475.956Z" transform="translate(-623.686 -472.237)" fill="#ff5050"/>
              <path id="Path_111" data-name="Path 111" d="M631.727,473.275c-1.909-.545-5.527-1.508-5.241-2.556.294-1.1,4.123-.747,6.058-.2,1.961.461,5.437,2.009,5.078,3.107C637.285,474.676,633.66,473.739,631.727,473.275Z" transform="translate(-624.285 -469.999)" fill="#ff5050"/>
              <path id="Path_112" data-name="Path 112" d="M637.593,477.276l-.012.031-.014.037a.177.177,0,0,1-.025.049.608.608,0,0,1-.276.24,1.764,1.764,0,0,1-.577.146,4.85,4.85,0,0,1-.79.012c-.291-.015-.606-.048-.939-.1s-.682-.1-1.043-.173-.733-.144-1.109-.23-.758-.177-1.138-.276-.757-.208-1.126-.319-.73-.227-1.076-.343-.678-.237-.988-.36-.6-.246-.856-.374a4.649,4.649,0,0,1-.67-.393,1.634,1.634,0,0,1-.414-.4.553.553,0,0,1-.1-.336.167.167,0,0,1,.006-.054l.008-.039.007-.031,0,.032,0,.039a.158.158,0,0,0,0,.053.565.565,0,0,0,.129.316,1.627,1.627,0,0,0,.429.366,5.477,5.477,0,0,0,.68.352,19.073,19.073,0,0,0,1.849.671c.345.111.706.216,1.073.324s.741.211,1.118.309.754.193,1.127.279.74.172,1.1.245a19.151,19.151,0,0,0,1.952.325,5.684,5.684,0,0,0,.776.028,1.744,1.744,0,0,0,.569-.107.625.625,0,0,0,.285-.21.165.165,0,0,0,.029-.046l.018-.036Z" transform="translate(-624.257 -473.648)" fill="#fff"/>
              <path id="Path_113" data-name="Path 113" d="M634.173,474.456c-3.188-.828-5.042-1.684-4.927-2.107.108-.4,2.3-.713,5.518.112,3.215.847,4.915,2.182,4.787,2.579C639.416,475.462,637.357,475.3,634.173,474.456Z" transform="translate(-626.599 -471.623)" fill="#f66"/>
              <path id="Path_114" data-name="Path 114" d="M671.942,479.67q-.03.173-.073.341a3.143,3.143,0,0,1-.81,1.361c2.051.427,3.319.447,3.423.123C674.578,481.2,673.687,480.414,671.942,479.67Z" transform="translate(-661.531 -478.077)" fill="#ff0832"/>
              <path id="Path_115" data-name="Path 115" d="M629.271,472.158a.213.213,0,0,1,.065-.1.85.85,0,0,1,.319-.162,4.927,4.927,0,0,1,1.285-.179,11.88,11.88,0,0,1,1.825.095,17.157,17.157,0,0,1,2.044.394,16.791,16.791,0,0,1,1.968.649,11.262,11.262,0,0,1,1.615.8,4.534,4.534,0,0,1,1,.779.773.773,0,0,1,.183.3.208.208,0,0,1,0,.116.2.2,0,0,0-.008-.115.8.8,0,0,0-.2-.281,3.128,3.128,0,0,0-.418-.351c-.173-.123-.376-.251-.6-.382a12.415,12.415,0,0,0-1.621-.759,16.809,16.809,0,0,0-1.961-.628,17.025,17.025,0,0,0-2.026-.408c-.328-.044-.646-.08-.949-.1s-.591-.033-.857-.032-.51.013-.725.034a3.407,3.407,0,0,0-.551.1.882.882,0,0,0-.321.144A.217.217,0,0,0,629.271,472.158Z" transform="translate(-626.625 -471.432)" fill="#fff"/>
              <g id="Group_34" data-name="Group 34" transform="translate(6.348 6.524)">
                <path id="Path_116" data-name="Path 116" d="M652.075,514.286a.449.449,0,0,1-.318-.333.424.424,0,0,1,.354-.5l.048-.008c.164-.025.6-.088.907-1.094l.746-2.439a.461.461,0,0,1,.88.268l-.755,2.434c-.471,1.518-1.339,1.638-1.625,1.681l-.024,0A.475.475,0,0,1,652.075,514.286Z" transform="translate(-651.748 -509.612)" fill="#fff"/>
              </g>
              <g id="Group_35" data-name="Group 35" transform="translate(8.753 4.708)">
                <path id="Path_117" data-name="Path 117" d="M666.686,500.069a.445.445,0,0,1-.317-.544l.2-.643a.465.465,0,0,1,.887.271l-.2.641A.448.448,0,0,1,666.686,500.069Z" transform="translate(-666.351 -498.584)" fill="#fff"/>
              </g>
              <g id="Group_36" data-name="Group 36" transform="translate(2.655 18.736)">
                <path id="Path_118" data-name="Path 118" d="M629.494,584.217a.228.228,0,0,1-.16-.281.236.236,0,0,1,.288-.162,9.282,9.282,0,0,0,1.17.216.23.23,0,0,1,.2.261.235.235,0,0,1-.266.2,9.658,9.658,0,0,1-1.227-.228Z" transform="translate(-629.325 -583.765)" fill="#fff"/>
              </g>
            </g>
          </g>
        </g>
      </g>
      <g id="Group_55" data-name="Group 55" transform="translate(0 25.748)">
        <g id="Group_43" data-name="Group 43" transform="translate(9.537 17.6)">
          <path id="Path_119" data-name="Path 119" d="M341.89,565.67q5-1.569,10.088-2.919l-.845-.828q-.54-.527-1.083-1.055-3.85.986-7.65,2.157Q342.141,564.351,341.89,565.67Z" transform="translate(-341.861 -560.868)" fill="#9e5125"/>
          <path id="Path_120" data-name="Path 120" d="M354.281,563.3c.2.646,2.024.674,4.086.1a7.954,7.954,0,0,0,3.1-1.477q-.54-.527-1.083-1.055-2.824.723-5.623,1.547C354.385,562.734,354.2,563.045,354.281,563.3Z" transform="translate(-352.196 -560.868)" fill="#522a14" opacity="0.5" style="mix-blend-mode: multiply;isolation: isolate"/>
          <path id="Path_121" data-name="Path 121" d="M359.8,587.33q-.707-.993-1.421-1.993-4.149,1.139-8.273,2.371-.1,1.246-.19,2.484Q354.857,588.745,359.8,587.33Z" transform="translate(-348.569 -581.307)" fill="#9e5125"/>
          <path id="Path_122" data-name="Path 122" d="M350.145,600.991l9.847-2.859-.187-.692q-4.946,1.414-9.884,2.861Z" transform="translate(-348.569 -591.417)" fill="#633318"/>
          <path id="Path_123" data-name="Path 123" d="M359.73,597.44q-1.242.335-2.479.687c-.826.23-1.649.471-2.474.706l-1.235.359-1.234.361-1.233.367-1.232.371-.011,0,0,.011.235.687-.213-.694-.008.014,1.239-.344,1.238-.348,1.237-.354,1.236-.356c.823-.242,1.647-.478,2.468-.725S358.911,597.693,359.73,597.44Z" transform="translate(-348.495 -591.417)" fill="#fff"/>
          <path id="Path_124" data-name="Path 124" d="M342.025,575.869q5-1.531,10.066-2.872l-.187-.692q-5.08,1.323-10.1,2.874Z" transform="translate(-341.787 -570.421)" fill="#633318"/>
          <path id="Path_125" data-name="Path 125" d="M351.831,572.3c-.426.1-.85.21-1.274.316l-1.271.331q-.635.166-1.268.342l-1.265.352c-.843.238-1.682.487-2.521.737l-1.255.386q-.627.194-1.251.4l-.011,0,0,.011.234.687-.213-.694-.007.014,2.52-.738,1.261-.366,1.262-.361,2.527-.714Z" transform="translate(-341.714 -570.421)" fill="#fff"/>
          <path id="Path_126" data-name="Path 126" d="M347,583.035q4.482-1.316,8.978-2.6l-.865-3.171q-4.586,1.223-9.13,2.6Z" transform="translate(-345.281 -574.567)" fill="#522a14"/>
          <path id="Path_127" data-name="Path 127" d="M346.095,580.217q4.532-1.374,9.113-2.6l-.094-.345q-4.586,1.223-9.13,2.6Z" transform="translate(-345.281 -574.567)" fill="#522a14" opacity="0.5" style="mix-blend-mode: multiply;isolation: isolate"/>
          <g id="Group_42" data-name="Group 42" transform="translate(2.759 3.942)">
            <path id="Path_128" data-name="Path 128" d="M360.608,587.167q2.391-.7,4.793-1.371c.128-.036.459.738.5.866l.175.621a.241.241,0,0,1-.165.3q-2.376.676-4.748,1.369a.246.246,0,0,1-.3-.165l-.193-.62C360.626,588.036,360.48,587.2,360.608,587.167Z" transform="translate(-360.212 -585.631)" fill="#522a14" opacity="0.5" style="mix-blend-mode: multiply;isolation: isolate"/>
            <path id="Path_129" data-name="Path 129" d="M358.806,586.185q2.393-.705,4.8-1.373a.243.243,0,0,1,.3.168l.374,1.319a.241.241,0,0,1-.165.3q-2.379.676-4.752,1.37a.247.247,0,0,1-.3-.165l-.41-1.316A.238.238,0,0,1,358.806,586.185Z" transform="translate(-358.607 -584.803)" fill="#f1c40f"/>
            <path id="Path_130" data-name="Path 130" d="M358.914,587.847l-.079-.279-.213-.734-.07-.236a.686.686,0,0,1-.03-.12.211.211,0,0,1,.024-.114.207.207,0,0,1,.083-.084.694.694,0,0,1,.127-.04l.28-.078,1.193-.336,1.189-.346c.38-.11.732-.219,1.035-.309s.554-.171.731-.225l.277-.087-.281.072c-.178.048-.434.112-.739.2s-.662.178-1.042.285l-1.192.336-1.189.346-.28.082-.068.02a.31.31,0,0,0-.072.029.267.267,0,0,0-.132.258.709.709,0,0,0,.036.131l.077.234.242.725Z" transform="translate(-358.464 -584.848)" fill="#fff"/>
            <g id="Group_41" data-name="Group 41" transform="translate(0.15 0.121)">
              <path id="Path_131" data-name="Path 131" d="M359.788,588.381l-.41-1.316a.119.119,0,0,1,.08-.15q2.391-.7,4.794-1.373a.122.122,0,0,1,.149.084l.375,1.319a.12.12,0,0,1-.082.149q-2.38.675-4.755,1.37A.123.123,0,0,1,359.788,588.381Zm4.414-2.575q-2.283.638-4.556,1.306l.336,1.085q2.262-.662,4.53-1.3Z" transform="translate(-359.372 -585.537)" fill="#e67e22"/>
            </g>
            <path id="Path_132" data-name="Path 132" d="M362.335,597.423a.139.139,0,0,0,.17.093.134.134,0,0,0,.09-.169.139.139,0,0,0-.17-.093A.134.134,0,0,0,362.335,597.423Z" transform="translate(-361.693 -595.199)" fill="#2c3e50"/>
            <path id="Path_133" data-name="Path 133" d="M387.974,590.059a.135.135,0,1,1-.168-.094A.135.135,0,0,1,387.974,590.059Z" transform="translate(-382.891 -589.11)" fill="#2c3e50"/>
            <path id="Path_134" data-name="Path 134" d="M369.464,585.715q1.59-.46,3.184-.9a.243.243,0,0,1,.3.168l.374,1.319a.241.241,0,0,1-.165.3q-.688.2-1.374.393Z" transform="translate(-367.652 -584.803)" fill="#fff" opacity="0.2" style="mix-blend-mode: overlay;isolation: isolate"/>
            <path id="Path_135" data-name="Path 135" d="M359.07,592.676a.236.236,0,0,1,.1-.059l.391-.114,2.312,1.271-.528.153Z" transform="translate(-358.97 -591.234)" fill="#fff" opacity="0.2" style="mix-blend-mode: overlay;isolation: isolate"/>
          </g>
        </g>
        <g id="Group_54" data-name="Group 54">
          <g id="Group_46" data-name="Group 46" transform="translate(0 4.403)">
            <g id="Group_44" data-name="Group 44">
              <path id="Path_136" data-name="Path 136" d="M292.26,486.864l-.177-.568a5.674,5.674,0,0,1-4.163-.085,7.211,7.211,0,0,1-3.352-4.015q.852-.375,1.719-.723a2.046,2.046,0,0,0,2.2.813l-.181-.563c-.848.306-1.613-.788-1.621-.8l-.127-.188q-1.393.548-2.747,1.168l.079.269c.048.154,1.014,3.365,3.736,4.586A6.338,6.338,0,0,0,292.26,486.864Z" transform="translate(-283.808 -480.736)" fill="#707070"/>
            </g>
            <g id="Group_45" data-name="Group 45" transform="translate(0.104 0.311)">
              <path id="Path_137" data-name="Path 137" d="M292.887,488.757l-.177-.567a5.66,5.66,0,0,1-4.158-.09,7.227,7.227,0,0,1-3.351-4.018q.851-.373,1.718-.719a2.047,2.047,0,0,0,2.195.816l-.182-.563c-.847.3-1.612-.79-1.62-.8l-.127-.188q-1.392.546-2.745,1.162l.079.269c.048.154,1.014,3.365,3.735,4.59A6.322,6.322,0,0,0,292.887,488.757Z" transform="translate(-284.441 -482.625)" fill="#fff"/>
              <path id="Path_138" data-name="Path 138" d="M293.138,489.515l-.177-.568a5.655,5.655,0,0,1-4.157-.091,7.234,7.234,0,0,1-3.35-4.02q.851-.372,1.717-.718a2.047,2.047,0,0,0,2.194.817l-.182-.563c-.847.3-1.612-.791-1.619-.8l-.127-.188q-1.391.544-2.744,1.159l.079.269c.048.154,1.014,3.365,3.734,4.592A6.315,6.315,0,0,0,293.138,489.515Z" transform="translate(-284.652 -483.257)" fill="#515151"/>
            </g>
          </g>
          <g id="Group_49" data-name="Group 49" transform="translate(14.251 0.607)">
            <g id="Group_47" data-name="Group 47">
              <path id="Path_139" data-name="Path 139" d="M370.5,466a6.165,6.165,0,0,0,3.9-2.388c1.661-2.358.74-5.513.7-5.665l-.079-.264q-1.5.133-2.991.343l-.006.22c0,.013-.048,1.306-.951,1.461l.153.564a1.893,1.893,0,0,0,1.436-1.751q.933-.127,1.867-.224a6.649,6.649,0,0,1-.679,5,5.512,5.512,0,0,1-3.506,2.131Z" transform="translate(-370.34 -457.683)" fill="#707070"/>
            </g>
            <g id="Group_48" data-name="Group 48" transform="translate(0.089 0.306)">
              <path id="Path_140" data-name="Path 140" d="M371.039,467.868a6.151,6.151,0,0,0,3.89-2.393c1.657-2.362.736-5.517.694-5.669l-.079-.264q-1.495.136-2.986.349c0,.073,0,.147-.006.22,0,.013-.048,1.306-.949,1.462l.153.564a1.9,1.9,0,0,0,1.433-1.754q.931-.128,1.864-.227a6.667,6.667,0,0,1-.675,5.008,5.5,5.5,0,0,1-3.5,2.136Z" transform="translate(-370.879 -459.542)" fill="#fff"/>
              <path id="Path_141" data-name="Path 141" d="M371.255,468.615a6.146,6.146,0,0,0,3.887-2.4c1.656-2.364.735-5.519.692-5.671l-.079-.264q-1.494.138-2.983.351,0,.11-.006.22c0,.013-.047,1.307-.948,1.463l.153.564a1.9,1.9,0,0,0,1.432-1.755q.93-.129,1.862-.228a6.675,6.675,0,0,1-.674,5.009,5.494,5.494,0,0,1-3.5,2.138Z" transform="translate(-371.059 -460.163)" fill="#353535"/>
            </g>
          </g>
          <g id="Group_53" data-name="Group 53" transform="translate(3.599)">
            <path id="Path_142" data-name="Path 142" d="M354.586,567.042c.142.456,1.429.475,2.882.065s2.531-1.1,2.4-1.554-1.427-.515-2.893-.1S354.445,566.587,354.586,567.042Z" transform="translate(-346.518 -546.863)" fill="#707070"/>
            <path id="Path_143" data-name="Path 143" d="M376.111,565.217c.945-.116,1.656.005,1.749.337s-.451.784-1.313,1.165Z" transform="translate(-364.509 -546.865)" fill="#515151"/>
            <path id="Path_144" data-name="Path 144" d="M352.878,563.257q2.641-.79,5.31-1.49l.266.941q-2.652.706-5.283,1.489Z" transform="translate(-345.102 -544.019)" fill="#707070"/>
            <path id="Path_145" data-name="Path 145" d="M375.772,562.179q.769-.21,1.539-.412l.266.941q-.766.2-1.531.414Z" transform="translate(-364.225 -544.019)" fill="#515151"/>
            <path id="Path_146" data-name="Path 146" d="M352.814,561.322c.142.456,1.434.472,2.894.061s2.545-1.1,2.416-1.552-1.434-.518-2.907-.106S352.673,560.867,352.814,561.322Z" transform="translate(-345.038 -542.084)" fill="#707070"/>
            <path id="Path_147" data-name="Path 147" d="M371.21,561.045c-.084-.079-.166-.161-.244-.246a6.773,6.773,0,0,1-.507-.805,1.8,1.8,0,0,0-.273-.379c1.281-.283,2.344-.191,2.459.218C372.743,560.179,372.142,560.655,371.21,561.045Z" transform="translate(-359.559 -542.085)" fill="#515151"/>
            <path id="Path_148" data-name="Path 148" d="M352.878,563.257a.352.352,0,0,0,.025.063.384.384,0,0,0,.134.141,1.465,1.465,0,0,0,.67.185,4.73,4.73,0,0,0,.983-.036c.178-.024.361-.053.546-.093s.37-.084.554-.136.367-.111.543-.174.349-.133.512-.206a4.675,4.675,0,0,0,.852-.479,1.418,1.418,0,0,0,.467-.5.371.371,0,0,0,.036-.188.353.353,0,0,0-.013-.066.355.355,0,0,1,.006.066.38.38,0,0,1-.053.176.912.912,0,0,1-.184.223,2.473,2.473,0,0,1-.3.229,5.459,5.459,0,0,1-.855.435c-.162.068-.334.131-.509.192s-.354.116-.536.167-.364.1-.545.138-.36.075-.535.1a5.476,5.476,0,0,1-.961.075,2.487,2.487,0,0,1-.382-.037.945.945,0,0,1-.278-.094.4.4,0,0,1-.141-.123A.359.359,0,0,1,352.878,563.257Z" transform="translate(-345.102 -544.019)" fill="#fff"/>
            <path id="Path_149" data-name="Path 149" d="M352.626,542.8q2.618-.783,5.264-1.476c-.666.172-1.982.508-3.183-2.837q-.155-.429-.306-.942-.446.12-.89.245c.1.343.187.661.257.957C354.581,542.2,353.284,542.6,352.626,542.8Z" transform="translate(-344.891 -523.785)" fill="#707070"/>
            <path id="Path_150" data-name="Path 150" d="M358.252,538.746a2.768,2.768,0,0,0,.94-.259q-.155-.429-.306-.942-.446.12-.89.245C358.1,538.131,358.182,538.449,358.252,538.746Z" transform="translate(-349.376 -523.785)" fill="#515151"/>
            <path id="Path_151" data-name="Path 151" d="M362.519,540.134c-.333-.824-.624-1.662-.878-2.512l.29-.079c1.273,4.326,2.753,3.97,3.48,3.782q-1,.261-1.99.535A13.184,13.184,0,0,1,362.519,540.134Z" transform="translate(-352.422 -523.785)" fill="#515151"/>
            <path id="Path_152" data-name="Path 152" d="M336.276,506.6l.931,3.005a2.473,2.473,0,0,0,.368.732,2.726,2.726,0,0,0,2.923.98A2.6,2.6,0,0,0,342.445,509a2.392,2.392,0,0,0-.087-.8l-.852-3.008Q338.866,505.8,336.276,506.6Z" transform="translate(-331.234 -496.761)" fill="#515151"/>
            <path id="Path_153" data-name="Path 153" d="M336.276,506.6l.931,3.005a2.473,2.473,0,0,0,.368.732,2.726,2.726,0,0,0,2.923.98A2.6,2.6,0,0,0,342.445,509a2.4,2.4,0,0,0-.087-.8l-.852-3.008Q338.866,505.8,336.276,506.6Zm.986,3.061a2.216,2.216,0,0,1,1.558-2.718,2.317,2.317,0,0,1,2.818,1.506,2.21,2.21,0,0,1-1.574,2.665A2.3,2.3,0,0,1,337.262,509.661Z" transform="translate(-331.234 -496.761)" fill="#707070"/>
            <path id="Path_154" data-name="Path 154" d="M336.276,506.6l.931,3.005a2.473,2.473,0,0,0,.368.732,5.65,5.65,0,0,0,2.6-.1A5.529,5.529,0,0,0,342.445,509a2.392,2.392,0,0,0-.087-.8l-.852-3.008Q338.866,505.8,336.276,506.6Z" transform="translate(-331.234 -496.761)" fill="#707070"/>
            <path id="Path_155" data-name="Path 155" d="M316.69,473.143h0a4.981,4.981,0,0,0,3.763-5.99l-1.581-5.842a58.7,58.7,0,0,0-10.558,2.763l1.879,5.832A5.263,5.263,0,0,0,316.69,473.143Z" transform="translate(-307.876 -460.107)" fill="#707070"/>
            <path id="Path_156" data-name="Path 156" d="M328.269,472.5a4.148,4.148,0,0,0,2.922.238,4.069,4.069,0,0,0,2.324-1.747,3.571,3.571,0,0,0,.392-2.764l-1.814-6.4q1.362-.291,2.736-.517l1.581,5.842a4.981,4.981,0,0,1-3.763,5.99h0a5.5,5.5,0,0,1-5.23-1.237A4.511,4.511,0,0,0,328.269,472.5Z" transform="translate(-323.834 -460.107)" fill="#515151"/>
            <path id="Path_157" data-name="Path 157" d="M308.406,477.883l2.04,6.34a3.3,3.3,0,0,0,.366.775,4.7,4.7,0,0,1-.62-1.249l-1.879-5.832Z" transform="translate(-307.876 -473.95)" fill="#515151"/>
            <path id="Path_158" data-name="Path 158" d="M313.792,461a33.536,33.536,0,0,0,3.384-1.077c1.106-.44,1.721-.863,1.634-1.184s-.876-.526-2.106-.506a16.439,16.439,0,0,0-3.578.52,16,16,0,0,0-3.351,1.286c-1.064.581-1.625,1.146-1.522,1.463s.863.386,2.052.225A33.6,33.6,0,0,0,313.792,461Z" transform="translate(-307.816 -457.532)" fill="#707070"/>
            <path id="Path_159" data-name="Path 159" d="M314.761,464.062a33.013,33.013,0,0,0,3.375-1.079c1.1-.441,1.716-.866,1.629-1.187s-.874-.525-2.1-.5a16.456,16.456,0,0,0-3.569.522,16.012,16.012,0,0,0-3.343,1.283c-1.062.579-1.621,1.142-1.519,1.46s.862.388,2.048.228A33.086,33.086,0,0,0,314.761,464.062Z" transform="translate(-308.634 -460.09)" fill="#515151"/>
            <path id="Path_160" data-name="Path 160" d="M312.431,459.956c1.905-.544,5.513-1.512,5.228-2.561-.293-1.1-4.113-.741-6.044-.193-1.956.462-5.426,2-5.068,3.1C306.883,461.352,310.5,460.42,312.431,459.956Z" transform="translate(-306.379 -456.237)" fill="#707070"/>
            <path id="Path_161" data-name="Path 161" d="M311.582,457.275c1.909-.545,5.527-1.508,5.241-2.556-.293-1.1-4.123-.747-6.058-.2-1.961.461-5.437,2.009-5.078,3.107C306.024,458.676,309.649,457.739,311.582,457.275Z" transform="translate(-305.662 -453.999)" fill="#707070"/>
            <path id="Path_162" data-name="Path 162" d="M305.818,461.276l.012.031.014.037a.175.175,0,0,0,.025.049.608.608,0,0,0,.275.24,1.765,1.765,0,0,0,.577.146,4.841,4.841,0,0,0,.79.012c.291-.015.606-.048.939-.1s.682-.1,1.043-.173.733-.144,1.109-.23.758-.178,1.138-.276.757-.208,1.126-.319.73-.227,1.076-.343.678-.237.988-.36.6-.246.856-.375a4.645,4.645,0,0,0,.67-.393,1.636,1.636,0,0,0,.414-.4.552.552,0,0,0,.1-.336.17.17,0,0,0-.006-.054l-.008-.039-.007-.031,0,.032,0,.039a.157.157,0,0,1,0,.053.565.565,0,0,1-.129.316,1.627,1.627,0,0,1-.429.366,5.479,5.479,0,0,1-.68.352,19.069,19.069,0,0,1-1.849.671c-.345.111-.706.216-1.073.324s-.741.211-1.118.309-.754.193-1.127.279-.74.172-1.1.245a19.132,19.132,0,0,1-1.952.325,5.673,5.673,0,0,1-.776.028,1.744,1.744,0,0,1-.569-.107.625.625,0,0,1-.285-.21.167.167,0,0,1-.029-.046l-.018-.036Z" transform="translate(-305.792 -457.648)" fill="#fff"/>
            <path id="Path_163" data-name="Path 163" d="M313.5,458.456c3.188-.828,5.042-1.684,4.927-2.107-.108-.4-2.3-.713-5.518.112-3.215.847-4.915,2.182-4.787,2.579C308.255,459.462,310.314,459.3,313.5,458.456Z" transform="translate(-307.709 -455.623)" fill="#707070"/>
            <path id="Path_164" data-name="Path 164" d="M310.659,463.67q.03.173.073.341a3.144,3.144,0,0,0,.81,1.361c-2.051.427-3.319.447-3.423.123C308.023,465.2,308.914,464.414,310.659,463.67Z" transform="translate(-307.708 -462.077)" fill="#515151"/>
            <path id="Path_165" data-name="Path 165" d="M318.421,456.158a.212.212,0,0,0-.065-.1.85.85,0,0,0-.319-.162,4.926,4.926,0,0,0-1.285-.179,11.872,11.872,0,0,0-1.825.095,17.144,17.144,0,0,0-2.044.394,16.792,16.792,0,0,0-1.968.649,11.26,11.26,0,0,0-1.615.8,4.535,4.535,0,0,0-1,.779.775.775,0,0,0-.183.3.207.207,0,0,0,0,.116.207.207,0,0,1,.008-.115.8.8,0,0,1,.2-.281,3.138,3.138,0,0,1,.418-.351c.173-.123.376-.251.6-.382a12.4,12.4,0,0,1,1.621-.759,16.818,16.818,0,0,1,1.961-.628,17.047,17.047,0,0,1,2.026-.408c.328-.044.646-.08.949-.1s.591-.033.857-.032.51.013.725.034a3.392,3.392,0,0,1,.551.1.883.883,0,0,1,.322.144A.217.217,0,0,1,318.421,456.158Z" transform="translate(-307.705 -455.432)" fill="#fff"/>
            <g id="Group_50" data-name="Group 50" transform="translate(4.052 6.524)">
              <path id="Path_166" data-name="Path 166" d="M332.9,498.286a.449.449,0,0,0,.318-.333.424.424,0,0,0-.354-.5l-.048-.008c-.164-.025-.6-.087-.907-1.094l-.746-2.439a.461.461,0,0,0-.88.268l.755,2.434c.471,1.518,1.339,1.638,1.625,1.681l.024,0A.474.474,0,0,0,332.9,498.286Z" transform="translate(-330.267 -493.612)" fill="#fff"/>
            </g>
            <g id="Group_51" data-name="Group 51" transform="translate(3.489 4.708)">
              <path id="Path_167" data-name="Path 167" d="M327.635,484.069a.445.445,0,0,0,.317-.544l-.2-.643a.465.465,0,0,0-.888.271l.2.641A.448.448,0,0,0,327.635,484.069Z" transform="translate(-326.85 -482.584)" fill="#fff"/>
            </g>
            <g id="Group_52" data-name="Group 52" transform="translate(9.04 18.736)">
              <path id="Path_168" data-name="Path 168" d="M362.05,568.217a.228.228,0,0,0,.16-.281.236.236,0,0,0-.288-.163,9.278,9.278,0,0,1-1.17.215.23.23,0,0,0-.2.261.235.235,0,0,0,.265.2,9.669,9.669,0,0,0,1.227-.228Z" transform="translate(-360.552 -567.765)" fill="#fff"/>
            </g>
          </g>
        </g>
      </g>
    </g>
  </g>
</svg>
