<svg xmlns="http://www.w3.org/2000/svg" width="50" height="50" viewBox="0 0 50 50">
  <g id="filter" transform="translate(-294.383 -664.383)">
    <circle id="Ellipse_269" data-name="Ellipse 269" cx="25" cy="25" r="25" transform="translate(294.383 664.383)" fill="#f1c86b"/>
    <g id="noun_filters_3629719" transform="translate(308.367 678.368)">
      <g id="Group_7237" data-name="Group 7237">
        <g id="Group_7236" data-name="Group 7236">
          <path id="Path_3616" data-name="Path 3616" d="M551.211,226.7a3.366,3.366,0,0,1,3.178,2.259l.054-.009h0l.131-.008H561.3a1.121,1.121,0,0,1,.131,2.234l-.131.008h-6.727a1.125,1.125,0,0,1-.186-.016,3.365,3.365,0,0,1-6.356,0l-.054.009h0l-.131.008h-6.727a1.121,1.121,0,0,1-.131-2.234l.131-.008h6.727a1.126,1.126,0,0,1,.186.016A3.364,3.364,0,0,1,551.211,226.7Zm0,2.242a1.121,1.121,0,1,0,1.121,1.121A1.122,1.122,0,0,0,551.211,228.938Zm-7.848-10.09a3.366,3.366,0,0,1,3.178,2.259l.054-.009h0l.131-.008H561.3a1.121,1.121,0,0,1,.131,2.234l-.131.008H546.727a1.126,1.126,0,0,1-.186-.016,3.364,3.364,0,1,1-3.177-4.469Zm0,2.242a1.121,1.121,0,1,0,1.121,1.121A1.122,1.122,0,0,0,543.363,221.09ZM555.7,211a3.366,3.366,0,0,1,3.178,2.259l.054-.009h0l.131-.008H561.3a1.121,1.121,0,0,1,.131,2.234l-.131.008h-2.242a1.126,1.126,0,0,1-.186-.016,3.365,3.365,0,0,1-6.356,0l-.054.009h0l-.131.008H541.121a1.121,1.121,0,0,1-.131-2.234l.131-.008h11.211a1.129,1.129,0,0,1,.186.016A3.364,3.364,0,0,1,555.7,211Zm0,2.242a1.121,1.121,0,1,0,1.121,1.121A1.122,1.122,0,0,0,555.7,213.242Z" transform="translate(-540 -211)" fill="#fff"/>
        </g>
      </g>
    </g>
  </g>
</svg>
