<svg xmlns="http://www.w3.org/2000/svg" width="18.1" height="18.1" viewBox="0 0 18.1 18.1">
  <g id="football-status" transform="translate(-22 -22)">
    <g id="Group_7228" data-name="Group 7228" transform="translate(22 22)">
      <path id="Path_3615" data-name="Path 3615" d="M31.038,40.1A9.05,9.05,0,1,1,40.1,31.038,9.042,9.042,0,0,1,31.038,40.1ZM22.992,28.717l-.158-.383a8.612,8.612,0,0,0,0,5.432c.09-.5.18-.969.293-1.465Zm7.055-6.266a8.7,8.7,0,0,0-4.035,1.555h0C27.364,23.488,28.717,22.947,30.047,22.451Zm8.565,4.418a8.786,8.786,0,0,0-2.7-2.975v.18c.789.857,1.578,1.69,2.389,2.547C38.386,26.688,38.5,26.778,38.612,26.869ZM36.741,37.575A8.705,8.705,0,0,0,39.6,32.233c-.293.045-.631.09-.924.158-.7,1.014-1.488,2.029-2.141,3.065-.09.7-.135,1.4-.18,2.1ZM32.1,39.626a8.583,8.583,0,0,0,4.192-1.69h-.113c-1.262.473-2.547.947-3.832,1.443A1.291,1.291,0,0,0,32.1,39.626Zm-6.153-1.961c.068.158.18.383.248.541a8.536,8.536,0,0,0,5.364,1.465c.135-.158.27-.316.428-.473-.428-.428-.879-.879-1.285-1.307-1.195-.338-2.389-.654-3.584-.992A11.369,11.369,0,0,0,25.944,37.665Zm-.406.045c0,.023.023.023.045.045,0-.023,0-.023-.023-.045Zm12.825-5.567c-.473-1.014-.947-1.961-1.465-2.93-.969-.068-1.938-.09-2.908-.158-.563.992-1.127,1.961-1.713,2.93.338,1.037.676,2.051,1.014,3.065.992.068,1.984.09,2.975.135C36.921,34.172,37.688,33.157,38.364,32.143ZM32.1,26.237c.631.766,1.352,1.578,1.893,2.389.992.09,1.984.135,2.975.158.338-.676.654-1.33.992-2.006l-2.322-2.434c-.992-.158-1.984-.293-2.953-.451C32.549,24.637,32.278,25.494,32.1,26.237Zm-3.539,4.869c-.361.406-.766.789-1.127,1.195a12.069,12.069,0,0,0-1.15,1.24c.27.969.609,2.051.947,3,1.172.338,2.344.654,3.516.969.721-.789,1.465-1.555,2.209-2.322l-1.037-3.043C30.813,31.827,29.664,31.444,28.559,31.106ZM32.3,23.8c-.7-.338-1.42-.676-2.141-1.014-1.33.518-2.682,1.014-3.99,1.555-.068.676-.135,1.352-.18,2.029.27.135.857.316,1.127.428.383.135.789.27,1.172.406,1.15-.383,2.3-.766,3.471-1.15C31.94,25.358,32.188,24.524,32.3,23.8Zm-4.237,3.742c-.744-.293-1.488-.563-2.254-.811-.811.609-1.668,1.33-2.434,2.006.068,1.15.068,2.3.113,3.449.834.338,1.69.676,2.524,1.037.721-.834,1.51-1.645,2.277-2.434C28.221,29.731,28.2,28.582,28.063,27.545Z" transform="translate(-22 -22)" fill="#e74c3c" fill-rule="evenodd"/>
    </g>
  </g>
</svg>
