<svg xmlns="http://www.w3.org/2000/svg" width="31" height="31" viewBox="0 0 31 31">
  <g id="video" transform="translate(0)">
    <circle id="Ellipse_268" data-name="Ellipse 268" cx="15.5" cy="15.5" r="15.5" transform="translate(0)" opacity="0.5"/>
    <g id="noun_Video_3136011" transform="translate(7.322 10.733)">
      <path id="Path_3611" data-name="Path 3611" d="M15.437,20.012,12.1,21.929v-.619A1.991,1.991,0,0,0,10.11,19.32H1.991A1.991,1.991,0,0,0,0,21.311v6.2A1.991,1.991,0,0,0,1.991,29.5h8.12A1.991,1.991,0,0,0,12.1,27.508v-.619l3.336,1.918c.632.363,1.151.065,1.151-.664V20.679C16.588,19.947,16.07,19.648,15.437,20.012Z" transform="translate(0 -19.32)" fill="#fff"/>
    </g>
  </g>
</svg>
