<svg xmlns="http://www.w3.org/2000/svg" width="32.44" height="40.977" viewBox="0 0 32.44 40.977">
  <g id="waiting" transform="translate(-6 -1)">
    <g id="Group_7226" data-name="Group 7226" transform="translate(6 1)">
      <path id="Path_3612" data-name="Path 3612" d="M36.306,37.708H34.172V32.586a12.053,12.053,0,0,0-7.512-11.1,11.925,11.925,0,0,0,7.512-11.1V5.268h2.134A2.113,2.113,0,0,0,38.44,3.134,2.113,2.113,0,0,0,36.306,1H8.134A2.113,2.113,0,0,0,6,3.134,2.113,2.113,0,0,0,8.134,5.268h2.134v5.122a12.053,12.053,0,0,0,7.512,11.1,11.925,11.925,0,0,0-7.512,11.1v5.122H8.134A2.113,2.113,0,0,0,6,39.843H6a2.113,2.113,0,0,0,2.134,2.134H36.306a2.113,2.113,0,0,0,2.134-2.134h0A2.113,2.113,0,0,0,36.306,37.708Zm-3.842,0H11.976V32.586a10.174,10.174,0,0,1,7.683-9.9v-2.39a10.174,10.174,0,0,1-7.683-9.9V5.268H32.464v5.122a10.174,10.174,0,0,1-7.683,9.9v2.39a10.174,10.174,0,0,1,7.683,9.9Z" transform="translate(-6 -1)" fill="#333"/>
      <path id="Path_3613" data-name="Path 3613" d="M31.508,16H15.8a8.583,8.583,0,0,0,7.854,5.122A8.675,8.675,0,0,0,31.508,16Z" transform="translate(-7.434 -3.195)" fill="#333"/>
      <path id="Path_3614" data-name="Path 3614" d="M15,37.415v3.415H32.074V37.415A9.024,9.024,0,0,0,31.391,34H15.683A9.024,9.024,0,0,0,15,37.415Z" transform="translate(-7.317 -5.828)" fill="#333"/>
      <rect id="Rectangle_1082" data-name="Rectangle 1082" transform="translate(13.388 21.794)" fill="#333"/>
      <rect id="Rectangle_1083" data-name="Rectangle 1083" height="4.834" transform="translate(13.388 21.794)" fill="#333"/>
    </g>
  </g>
</svg>
