<svg xmlns="http://www.w3.org/2000/svg" width="63" height="89" viewBox="0 0 63 89">
  <g id="twitter" transform="translate(-38 -681)">
    <text id="Twitter-2" data-name="Twitter" transform="translate(69 765)" fill="#333" font-size="14" font-family="Jost-Regular, Jost"><tspan x="-18.991" y="0">Twitter</tspan></text>
    <g id="twitter-3" data-name="twitter">
      <circle id="Ellipse_228" data-name="Ellipse 228" cx="31.5" cy="31.5" r="31.5" transform="translate(38 681)" fill="#1da1f2"/>
      <path id="twitter-4" data-name="twitter" d="M26.633,8.264a12.147,12.147,0,0,0,3.05-3.159h0a12.709,12.709,0,0,1-3.506.961A6.053,6.053,0,0,0,28.854,2.7,12.176,12.176,0,0,1,25,4.176,6.085,6.085,0,0,0,14.469,8.336a6.266,6.266,0,0,0,.141,1.388A17.228,17.228,0,0,1,2.067,3.358a6.085,6.085,0,0,0,1.87,8.133,6.015,6.015,0,0,1-2.749-.749v.067a6.114,6.114,0,0,0,4.875,5.98,6.051,6.051,0,0,1-1.6.2,5.371,5.371,0,0,1-1.151-.1A6.145,6.145,0,0,0,9,21.124a12.232,12.232,0,0,1-7.546,2.595A11.509,11.509,0,0,1,0,23.636a17.137,17.137,0,0,0,9.335,2.731,17.2,17.2,0,0,0,17.3-18.1Z" transform="translate(55.159 698.441)" fill="#fff"/>
    </g>
  </g>
</svg>
