<svg xmlns="http://www.w3.org/2000/svg" width="64" height="89" viewBox="0 0 64 89">
  <g id="whatsapp" transform="translate(-37 -681)">
    <g id="whatsapp-2" data-name="whatsapp">
      <circle id="Ellipse_228" data-name="Ellipse 228" cx="31.5" cy="31.5" r="31.5" transform="translate(38 681)" fill="#45ec63"/>
      <g id="whatsapp-3" data-name="whatsapp" transform="translate(54 697)">
        <path id="Path_3597" data-name="Path 3597" d="M26.476,4.516a15.542,15.542,0,0,0-21.9,0A15.255,15.255,0,0,0,0,15.4v.008A15.334,15.334,0,0,0,1.892,22.69L.043,31.1l8.5-1.934a15.565,15.565,0,0,0,6.981,1.659h.006a15.492,15.492,0,0,0,10.959-4.513,15.246,15.246,0,0,0-.016-21.793ZM15.533,28.394h-.005a13.118,13.118,0,0,1-6.236-1.581l-.4-.218L3.235,27.881,4.463,22.3l-.237-.408a12.973,12.973,0,0,1-1.8-6.482A13.1,13.1,0,0,1,24.763,6.235a12.9,12.9,0,0,1,3.876,9.18A13.062,13.062,0,0,1,15.533,28.394Zm0,0" fill="#fff"/>
        <path id="Path_3598" data-name="Path 3598" d="M141.739,141.863h-.681a1.307,1.307,0,0,0-.947.443,3.965,3.965,0,0,0-1.244,2.954,6.878,6.878,0,0,0,1.451,3.662c.178.236,2.458,3.926,6.069,5.345,3,1.18,3.612.945,4.264.886a3.588,3.588,0,0,0,2.4-1.683,2.952,2.952,0,0,0,.207-1.684c-.089-.148-.326-.236-.681-.413s-2.1-1.048-2.423-1.167-.563-.177-.8.178-.935,1.173-1.142,1.409-.414.266-.77.089a9.824,9.824,0,0,1-2.845-1.764,10.887,10.887,0,0,1-2-2.49c-.207-.354-.022-.546.156-.723.16-.158.375-.375.553-.582a2.4,2.4,0,0,0,.347-.591.65.65,0,0,0-.03-.62c-.089-.177-.771-1.928-1.087-2.629h0C142.272,141.893,141.992,141.873,141.739,141.863Zm0,0" transform="translate(-130.432 -133.247)" fill="#fff"/>
      </g>
    </g>
    <text id="WhatsApp-4" data-name="WhatsApp" transform="translate(69 765)" fill="#333" font-size="14" font-family="Jost-Regular, Jost"><tspan x="-31.073" y="0">WhatsApp</tspan></text>
  </g>
</svg>
